<svg width="2000px" height="233px"
 viewBox="0.00 0.00 2084.77 243.04" xmlns="http://www.w3.org/2000/svg" xmlns:xlink="http://www.w3.org/1999/xlink">
<g id="graph0" class="graph" transform="scale(1.0 1.0) rotate(0) translate(4 239.04)">
<title>ContextMapGraph</title>
<polygon fill="white" stroke="transparent" points="-4,4 -4,-239.04 2080.77,-239.04 2080.77,4 -4,4"/>
<!-- ContratosAlpesMonolitoContext -->
<g id="node1" class="node">
<title>ContratosAlpesMonolitoContext</title>
<polygon fill="none" stroke="black" stroke-width="2" points="1188.35,-2.4 1201.62,-3.17 1214.64,-4.06 1227.36,-5.06 1239.72,-6.16 1251.68,-7.36 1263.19,-8.66 1274.2,-10.05 1284.66,-11.53 1294.55,-13.09 1303.82,-14.73 1312.43,-16.45 1320.37,-18.23 1327.6,-20.08 1334.11,-21.99 1339.87,-23.96 1344.87,-25.97 1349.1,-28.02 1352.56,-30.11 1355.24,-32.24 1357.15,-34.39 1358.28,-36.56 1358.66,-38.75 1358.3,-40.95 1357.2,-43.16 1355.39,-45.36 1352.9,-47.56 1349.74,-49.75 1345.95,-51.92 1341.55,-54.07 1336.57,-56.2 1331.05,-58.29 1325.02,-60.35 1318.51,-62.36 1311.56,-64.33 1304.21,-66.25 1296.48,-68.12 1288.43,-69.92 1280.07,-71.66 1271.45,-73.33 1262.59,-74.92 1253.53,-76.44 1244.31,-77.88 1234.94,-79.23 1225.46,-80.5 1215.89,-81.67 1206.26,-82.75 1196.59,-83.73 1186.89,-84.6 1177.2,-85.38 1167.52,-86.04 1157.88,-86.6 1148.28,-87.05 1138.73,-87.39 1129.26,-87.61 1119.86,-87.71 1110.55,-87.7 1101.34,-87.57 1092.22,-87.33 1083.22,-86.97 1074.32,-86.49 1065.55,-85.89 1056.89,-85.18 1048.37,-84.35 1039.99,-83.41 1031.75,-82.36 1023.65,-81.2 1015.72,-79.93 1007.95,-78.56 1000.37,-77.09 992.97,-75.52 985.77,-73.86 978.78,-72.12 972.03,-70.29 965.53,-68.38 959.29,-66.4 953.33,-64.35 947.68,-62.24 942.35,-60.07 937.38,-57.85 932.77,-55.59 928.56,-53.29 924.76,-50.97 921.42,-48.62 918.53,-46.25 916.14,-43.88 914.27,-41.5 912.93,-39.13 912.16,-36.78 911.97,-34.44 912.38,-32.13 913.41,-29.86 915.07,-27.62 917.38,-25.44 920.35,-23.31 923.98,-21.24 928.29,-19.24 933.28,-17.31 938.93,-15.47 945.26,-13.71 952.25,-12.03 959.88,-10.46 968.16,-8.98 977.04,-7.61 986.53,-6.34 996.57,-5.19 1007.16,-4.15 1018.25,-3.23 1029.81,-2.43 1041.8,-1.75 1054.18,-1.19 1066.9,-0.75 1079.92,-0.44 1093.18,-0.26 1106.63,-0.2 1120.22,-0.26 1133.9,-0.45 1147.61,-0.76 1161.29,-1.18 1174.89,-1.73 1188.35,-2.4"/>
<text text-anchor="middle" x="1127.91" y="-40.5" font-family="sans-serif" font-size="16.00">ContratosAlpesMonolitoContext</text>
</g>
<!-- ContratosAlpesThirdPartyContext -->
<g id="node2" class="node">
<title>ContratosAlpesThirdPartyContext</title>
<polygon fill="none" stroke="black" stroke-width="2" points="95.19,-218.5 84.43,-216.59 74.14,-214.61 64.38,-212.56 55.18,-210.45 46.59,-208.28 38.64,-206.07 31.36,-203.82 24.78,-201.54 18.94,-199.24 13.85,-196.92 9.54,-194.59 6.03,-192.27 3.32,-189.95 1.42,-187.64 0.35,-185.35 0.09,-183.09 0.66,-180.86 2.04,-178.67 4.23,-176.51 7.2,-174.41 10.94,-172.35 15.43,-170.35 20.65,-168.4 26.56,-166.52 33.15,-164.7 40.37,-162.95 48.19,-161.27 56.57,-159.66 65.48,-158.13 74.87,-156.67 84.7,-155.29 94.94,-153.99 105.53,-152.77 116.43,-151.63 127.6,-150.57 138.99,-149.6 150.57,-148.71 162.28,-147.91 174.09,-147.19 185.96,-146.56 197.85,-146.02 209.72,-145.57 221.54,-145.2 233.26,-144.93 244.86,-144.74 256.31,-144.65 267.59,-144.65 278.65,-144.74 289.49,-144.92 300.08,-145.2 310.39,-145.58 320.42,-146.05 330.14,-146.61 339.55,-147.27 348.63,-148.03 357.36,-148.89 365.75,-149.84 373.79,-150.89 381.46,-152.03 388.77,-153.27 395.71,-154.61 402.27,-156.03 408.46,-157.55 414.26,-159.16 419.69,-160.85 424.74,-162.63 429.4,-164.49 433.67,-166.43 437.56,-168.44 441.05,-170.52 444.15,-172.66 446.86,-174.87 449.16,-177.13 451.05,-179.43 452.54,-181.78 453.6,-184.17 454.24,-186.58 454.46,-189.01 454.23,-191.45 453.56,-193.91 452.43,-196.35 450.85,-198.79 448.8,-201.21 446.27,-203.59 443.26,-205.94 439.76,-208.25 435.77,-210.5 431.28,-212.69 426.29,-214.81 420.79,-216.85 414.78,-218.8 408.27,-220.65 401.26,-222.41 393.75,-224.05 385.74,-225.58 377.26,-226.99 368.3,-228.27 358.88,-229.41 349.03,-230.42 338.75,-231.29 328.07,-232.01 317.02,-232.59 305.61,-233.01 293.89,-233.29 281.87,-233.41 269.61,-233.38 257.13,-233.2 244.47,-232.88 231.68,-232.4 218.79,-231.78 205.86,-231.01 192.92,-230.11 180.03,-229.07 167.24,-227.9 154.58,-226.61 142.12,-225.2 129.91,-223.68 117.98,-222.05 106.39,-220.32 95.19,-218.5"/>
<text text-anchor="middle" x="244.91" y="-182.52" font-family="sans-serif" font-size="16.00">ContratosAlpesThirdPartyContext</text>
</g>
<!-- ContratosAlpesThirdPartyContext&#45;&gt;ContratosAlpesMonolitoContext -->
<g id="edge1" class="edge">
<title>ContratosAlpesThirdPartyContext&#45;&gt;ContratosAlpesMonolitoContext</title>
<path fill="none" stroke="black" stroke-width="2" d="M399.2,-155.32C432.06,-149.21 466.6,-143.01 498.91,-137.61 656.07,-111.32 836.02,-85.33 963.07,-67.66"/>
<text text-anchor="middle" x="764.41" y="-110.01" font-family="sans-serif" font-size="12.00"> &#160;&#160;&#160;&#160;&#160;&#160;&#160;&#160;&#160;&#160;&#160;&#160;&#160;&#160;&#160;&#160;&#160;&#160;&#160;&#160;&#160;&#160;&#160;&#160;&#160;&#160;&#160;&#160;&#160;&#160;&#160;&#160;&#160;&#160;&#160;&#160;&#160;&#160;&#160;</text>
<polygon fill="white" stroke="transparent" points="944.07,-57.66 944.07,-76.66 960.07,-76.66 960.07,-57.66 944.07,-57.66"/>
<polyline fill="none" stroke="black" points="960.07,-57.66 960.07,-76.66 "/>
<text text-anchor="start" x="947.07" y="-64.06" font-family="sans-serif" font-size="12.00">D</text>
<polygon fill="white" stroke="transparent" points="960.07,-57.66 960.07,-76.66 982.07,-76.66 982.07,-57.66 960.07,-57.66"/>
<polygon fill="none" stroke="black" points="960.07,-57.66 960.07,-76.66 982.07,-76.66 982.07,-57.66 960.07,-57.66"/>
<text text-anchor="start" x="963.07" y="-64.06" font-family="sans-serif" font-size="12.00">CF</text>
<polygon fill="white" stroke="transparent" points="375.2,-145.32 375.2,-164.32 391.2,-164.32 391.2,-145.32 375.2,-145.32"/>
<polyline fill="none" stroke="black" points="391.2,-145.32 391.2,-164.32 "/>
<text text-anchor="start" x="378.2" y="-151.72" font-family="sans-serif" font-size="12.00">U</text>
<polygon fill="white" stroke="transparent" points="391.2,-145.32 391.2,-164.32 424.2,-164.32 424.2,-145.32 391.2,-145.32"/>
<polygon fill="none" stroke="black" points="391.2,-145.32 391.2,-164.32 424.2,-164.32 424.2,-145.32 391.2,-145.32"/>
<text text-anchor="start" x="394.2" y="-151.72" font-family="sans-serif" font-size="12.00">OHS</text>
</g>
<!-- GoogleMapsThirdPartyContext -->
<g id="node3" class="node">
<title>GoogleMapsThirdPartyContext</title>
<polygon fill="none" stroke="black" stroke-width="2" points="880.86,-215.65 872.13,-217.83 863.02,-219.92 853.58,-221.9 843.85,-223.78 833.85,-225.53 823.63,-227.16 813.22,-228.65 802.66,-230 791.98,-231.21 781.22,-232.27 770.41,-233.17 759.58,-233.91 748.77,-234.49 738.01,-234.91 727.33,-235.17 716.75,-235.26 706.3,-235.18 696.01,-234.94 685.9,-234.55 675.99,-233.99 666.31,-233.28 656.87,-232.42 647.69,-231.41 638.79,-230.26 630.18,-228.98 621.87,-227.57 613.88,-226.04 606.22,-224.39 598.9,-222.64 591.93,-220.79 585.32,-218.85 579.06,-216.83 573.18,-214.74 567.68,-212.58 562.55,-210.37 557.82,-208.11 553.47,-205.82 549.53,-203.49 545.98,-201.15 542.84,-198.79 540.11,-196.43 537.79,-194.06 535.89,-191.71 534.42,-189.38 533.37,-187.06 532.74,-184.78 532.56,-182.53 532.8,-180.32 533.5,-178.15 534.63,-176.03 536.22,-173.97 538.25,-171.96 540.74,-170 543.69,-168.11 547.09,-166.29 550.95,-164.53 555.27,-162.84 560.05,-161.21 565.28,-159.66 570.96,-158.18 577.09,-156.77 583.66,-155.44 590.66,-154.18 598.08,-152.99 605.92,-151.87 614.16,-150.84 622.79,-149.87 631.78,-148.98 641.12,-148.17 650.8,-147.44 660.79,-146.78 671.06,-146.2 681.59,-145.7 692.35,-145.29 703.31,-144.95 714.44,-144.69 725.72,-144.52 737.09,-144.44 748.53,-144.44 760.01,-144.53 771.48,-144.71 782.9,-144.99 794.24,-145.35 805.45,-145.82 816.5,-146.37 827.34,-147.03 837.94,-147.79 848.25,-148.65 858.24,-149.61 867.87,-150.67 877.09,-151.83 885.88,-153.1 894.2,-154.47 902.01,-155.94 909.3,-157.51 916.01,-159.18 922.14,-160.95 927.66,-162.81 932.54,-164.76 936.76,-166.79 940.32,-168.91 943.19,-171.11 945.37,-173.38 946.84,-175.72 947.62,-178.11 947.68,-180.56 947.05,-183.06 945.71,-185.59 943.69,-188.15 940.98,-190.74 937.61,-193.33 933.6,-195.93 928.95,-198.52 923.69,-201.1 917.85,-203.65 911.45,-206.16 904.53,-208.62 897.1,-211.03 889.2,-213.38 880.86,-215.65"/>
<text text-anchor="middle" x="727.91" y="-182.52" font-family="sans-serif" font-size="16.00">GoogleMapsThirdPartyContext</text>
</g>
<!-- GoogleMapsThirdPartyContext&#45;&gt;ContratosAlpesMonolitoContext -->
<g id="edge2" class="edge">
<title>GoogleMapsThirdPartyContext&#45;&gt;ContratosAlpesMonolitoContext</title>
<path fill="none" stroke="black" stroke-width="2" d="M835.62,-147.62C894.4,-127.04 966.79,-101.7 1024.82,-81.39"/>
<text text-anchor="middle" x="1027.41" y="-110.01" font-family="sans-serif" font-size="12.00"> &#160;&#160;&#160;&#160;&#160;&#160;&#160;&#160;&#160;&#160;&#160;&#160;&#160;&#160;&#160;&#160;&#160;&#160;&#160;&#160;&#160;&#160;&#160;&#160;&#160;&#160;&#160;&#160;&#160;&#160;&#160;&#160;&#160;&#160;&#160;&#160;&#160;&#160;&#160;</text>
<polygon fill="white" stroke="transparent" points="1005.82,-71.39 1005.82,-90.39 1021.82,-90.39 1021.82,-71.39 1005.82,-71.39"/>
<polyline fill="none" stroke="black" points="1021.82,-71.39 1021.82,-90.39 "/>
<text text-anchor="start" x="1008.82" y="-77.79" font-family="sans-serif" font-size="12.00">D</text>
<polygon fill="white" stroke="transparent" points="1021.82,-71.39 1021.82,-90.39 1043.82,-90.39 1043.82,-71.39 1021.82,-71.39"/>
<polygon fill="none" stroke="black" points="1021.82,-71.39 1021.82,-90.39 1043.82,-90.39 1043.82,-71.39 1021.82,-71.39"/>
<text text-anchor="start" x="1024.82" y="-77.79" font-family="sans-serif" font-size="12.00">CF</text>
<polygon fill="white" stroke="transparent" points="811.62,-137.62 811.62,-156.62 827.62,-156.62 827.62,-137.62 811.62,-137.62"/>
<polyline fill="none" stroke="black" points="827.62,-137.62 827.62,-156.62 "/>
<text text-anchor="start" x="814.62" y="-144.02" font-family="sans-serif" font-size="12.00">U</text>
<polygon fill="white" stroke="transparent" points="827.62,-137.62 827.62,-156.62 860.62,-156.62 860.62,-137.62 827.62,-137.62"/>
<polygon fill="none" stroke="black" points="827.62,-137.62 827.62,-156.62 860.62,-156.62 860.62,-137.62 827.62,-137.62"/>
<text text-anchor="start" x="830.62" y="-144.02" font-family="sans-serif" font-size="12.00">OHS</text>
</g>
<!-- IGACThirdPartyContext -->
<g id="node4" class="node">
<title>IGACThirdPartyContext</title>
<polygon fill="none" stroke="black" stroke-width="2" points="968.63,-178.23 970.43,-175.41 972.66,-172.63 975.31,-169.91 978.37,-167.24 981.84,-164.65 985.7,-162.14 989.94,-159.72 994.55,-157.4 999.51,-155.2 1004.82,-153.12 1010.45,-151.16 1016.39,-149.33 1022.63,-147.65 1029.14,-146.1 1035.91,-144.71 1042.92,-143.47 1050.15,-142.38 1057.58,-141.45 1065.2,-140.67 1072.97,-140.05 1080.89,-139.59 1088.93,-139.28 1097.06,-139.13 1105.28,-139.12 1113.55,-139.27 1121.85,-139.55 1130.17,-139.97 1138.48,-140.53 1146.76,-141.21 1154.99,-142.02 1163.15,-142.94 1171.21,-143.97 1179.16,-145.1 1186.98,-146.33 1194.64,-147.64 1202.12,-149.04 1209.41,-150.52 1216.49,-152.06 1223.33,-153.66 1229.93,-155.32 1236.25,-157.03 1242.29,-158.79 1248.03,-160.58 1253.45,-162.4 1258.54,-164.25 1263.28,-166.13 1267.67,-168.02 1271.68,-169.93 1275.31,-171.85 1278.55,-173.78 1281.38,-175.71 1283.8,-177.64 1285.8,-179.58 1287.37,-181.51 1288.52,-183.44 1289.23,-185.36 1289.49,-187.28 1289.32,-189.18 1288.71,-191.08 1287.65,-192.97 1286.16,-194.84 1284.23,-196.7 1281.86,-198.54 1279.07,-200.37 1275.85,-202.18 1272.23,-203.97 1268.2,-205.74 1263.77,-207.49 1258.96,-209.21 1253.78,-210.9 1248.25,-212.56 1242.37,-214.18 1236.17,-215.77 1229.66,-217.31 1222.86,-218.81 1215.78,-220.25 1208.45,-221.64 1200.9,-222.96 1193.12,-224.22 1185.16,-225.41 1177.04,-226.52 1168.77,-227.55 1160.38,-228.48 1151.89,-229.32 1143.34,-230.07 1134.73,-230.7 1126.11,-231.23 1117.49,-231.63 1108.89,-231.92 1100.35,-232.07 1091.89,-232.1 1083.52,-231.99 1075.29,-231.74 1067.2,-231.35 1059.29,-230.82 1051.57,-230.14 1044.07,-229.31 1036.81,-228.34 1029.81,-227.22 1023.09,-225.95 1016.67,-224.54 1010.56,-222.99 1004.79,-221.29 999.37,-219.47 994.32,-217.52 989.64,-215.44 985.35,-213.25 981.46,-210.95 977.99,-208.54 974.94,-206.05 972.32,-203.47 970.13,-200.82 968.38,-198.1 967.08,-195.33 966.22,-192.52 965.81,-189.68 965.85,-186.81 966.33,-183.95 967.26,-181.08 968.63,-178.23"/>
<text text-anchor="middle" x="1127.91" y="-182.52" font-family="sans-serif" font-size="16.00">IGACThirdPartyContext</text>
</g>
<!-- IGACThirdPartyContext&#45;&gt;ContratosAlpesMonolitoContext -->
<g id="edge3" class="edge">
<title>IGACThirdPartyContext&#45;&gt;ContratosAlpesMonolitoContext</title>
<path fill="none" stroke="black" stroke-width="2" d="M1127.91,-139.47C1127.91,-122.89 1127.91,-104.23 1127.91,-87.93"/>
<text text-anchor="middle" x="1203.41" y="-110.01" font-family="sans-serif" font-size="12.00"> &#160;&#160;&#160;&#160;&#160;&#160;&#160;&#160;&#160;&#160;&#160;&#160;&#160;&#160;&#160;&#160;&#160;&#160;&#160;&#160;&#160;&#160;&#160;&#160;&#160;&#160;&#160;&#160;&#160;&#160;&#160;&#160;&#160;&#160;&#160;&#160;&#160;&#160;&#160;</text>
<polygon fill="white" stroke="transparent" points="1108.91,-77.93 1108.91,-96.93 1124.91,-96.93 1124.91,-77.93 1108.91,-77.93"/>
<polyline fill="none" stroke="black" points="1124.91,-77.93 1124.91,-96.93 "/>
<text text-anchor="start" x="1111.91" y="-84.33" font-family="sans-serif" font-size="12.00">D</text>
<polygon fill="white" stroke="transparent" points="1124.91,-77.93 1124.91,-96.93 1146.91,-96.93 1146.91,-77.93 1124.91,-77.93"/>
<polygon fill="none" stroke="black" points="1124.91,-77.93 1124.91,-96.93 1146.91,-96.93 1146.91,-77.93 1124.91,-77.93"/>
<text text-anchor="start" x="1127.91" y="-84.33" font-family="sans-serif" font-size="12.00">CF</text>
<polygon fill="white" stroke="transparent" points="1103.91,-129.47 1103.91,-148.47 1119.91,-148.47 1119.91,-129.47 1103.91,-129.47"/>
<polyline fill="none" stroke="black" points="1119.91,-129.47 1119.91,-148.47 "/>
<text text-anchor="start" x="1106.91" y="-135.87" font-family="sans-serif" font-size="12.00">U</text>
<polygon fill="white" stroke="transparent" points="1119.91,-129.47 1119.91,-148.47 1152.91,-148.47 1152.91,-129.47 1119.91,-129.47"/>
<polygon fill="none" stroke="black" points="1119.91,-129.47 1119.91,-148.47 1152.91,-148.47 1152.91,-129.47 1119.91,-129.47"/>
<text text-anchor="start" x="1122.91" y="-135.87" font-family="sans-serif" font-size="12.00">OHS</text>
</g>
<!-- OpenMapsThirdPartyContext -->
<g id="node5" class="node">
<title>OpenMapsThirdPartyContext</title>
<polygon fill="none" stroke="black" stroke-width="2" points="1528.94,-230.31 1516.19,-230.47 1503.49,-230.51 1490.91,-230.43 1478.48,-230.22 1466.25,-229.89 1454.29,-229.43 1442.62,-228.86 1431.3,-228.16 1420.37,-227.35 1409.87,-226.41 1399.82,-225.37 1390.27,-224.21 1381.25,-222.94 1372.77,-221.56 1364.87,-220.08 1357.56,-218.51 1350.87,-216.84 1344.8,-215.09 1339.36,-213.25 1334.55,-211.33 1330.4,-209.34 1326.88,-207.28 1324,-205.16 1321.75,-202.99 1320.12,-200.77 1319.11,-198.5 1318.69,-196.2 1318.85,-193.88 1319.57,-191.53 1320.84,-189.17 1322.63,-186.8 1324.92,-184.44 1327.69,-182.08 1330.9,-179.73 1334.55,-177.41 1338.61,-175.11 1343.04,-172.84 1347.83,-170.62 1352.95,-168.45 1358.39,-166.33 1364.11,-164.27 1370.1,-162.27 1376.33,-160.35 1382.8,-158.5 1389.47,-156.73 1396.34,-155.05 1403.38,-153.47 1410.6,-151.97 1417.96,-150.58 1425.46,-149.28 1433.1,-148.1 1440.86,-147.02 1448.73,-146.05 1456.7,-145.2 1464.78,-144.46 1472.95,-143.84 1481.21,-143.33 1489.55,-142.95 1497.96,-142.68 1506.45,-142.53 1515.01,-142.51 1523.62,-142.6 1532.29,-142.81 1541,-143.13 1549.75,-143.57 1558.52,-144.13 1567.32,-144.79 1576.11,-145.57 1584.9,-146.45 1593.66,-147.44 1602.38,-148.53 1611.03,-149.72 1619.61,-151 1628.09,-152.38 1636.44,-153.84 1644.63,-155.39 1652.66,-157.01 1660.48,-158.72 1668.06,-160.49 1675.39,-162.33 1682.42,-164.23 1689.12,-166.18 1695.48,-168.19 1701.44,-170.25 1706.99,-172.34 1712.09,-174.48 1716.71,-176.64 1720.81,-178.83 1724.38,-181.04 1727.38,-183.27 1729.79,-185.5 1731.59,-187.74 1732.74,-189.98 1733.24,-192.21 1733.07,-194.42 1732.2,-196.62 1730.64,-198.79 1728.37,-200.93 1725.4,-203.04 1721.71,-205.1 1717.31,-207.12 1712.22,-209.09 1706.43,-211 1699.97,-212.85 1692.84,-214.63 1685.08,-216.34 1676.71,-217.97 1667.75,-219.52 1658.24,-220.98 1648.22,-222.35 1637.71,-223.63 1626.76,-224.81 1615.42,-225.89 1603.72,-226.86 1591.73,-227.72 1579.48,-228.47 1567.02,-229.11 1554.41,-229.63 1541.7,-230.03 1528.94,-230.31"/>
<text text-anchor="middle" x="1520.91" y="-182.52" font-family="sans-serif" font-size="16.00">OpenMapsThirdPartyContext</text>
</g>
<!-- OpenMapsThirdPartyContext&#45;&gt;ContratosAlpesMonolitoContext -->
<g id="edge4" class="edge">
<title>OpenMapsThirdPartyContext&#45;&gt;ContratosAlpesMonolitoContext</title>
<path fill="none" stroke="black" stroke-width="2" d="M1421.48,-149.9C1361.79,-128.63 1286.14,-101.68 1226.58,-80.46"/>
<text text-anchor="middle" x="1411.41" y="-110.01" font-family="sans-serif" font-size="12.00"> &#160;&#160;&#160;&#160;&#160;&#160;&#160;&#160;&#160;&#160;&#160;&#160;&#160;&#160;&#160;&#160;&#160;&#160;&#160;&#160;&#160;&#160;&#160;&#160;&#160;&#160;&#160;&#160;&#160;&#160;&#160;&#160;&#160;&#160;&#160;&#160;&#160;&#160;&#160;</text>
<polygon fill="white" stroke="transparent" points="1207.58,-70.46 1207.58,-89.46 1223.58,-89.46 1223.58,-70.46 1207.58,-70.46"/>
<polyline fill="none" stroke="black" points="1223.58,-70.46 1223.58,-89.46 "/>
<text text-anchor="start" x="1210.58" y="-76.86" font-family="sans-serif" font-size="12.00">D</text>
<polygon fill="white" stroke="transparent" points="1223.58,-70.46 1223.58,-89.46 1245.58,-89.46 1245.58,-70.46 1223.58,-70.46"/>
<polygon fill="none" stroke="black" points="1223.58,-70.46 1223.58,-89.46 1245.58,-89.46 1245.58,-70.46 1223.58,-70.46"/>
<text text-anchor="start" x="1226.58" y="-76.86" font-family="sans-serif" font-size="12.00">CF</text>
<polygon fill="white" stroke="transparent" points="1397.48,-139.9 1397.48,-158.9 1413.48,-158.9 1413.48,-139.9 1397.48,-139.9"/>
<polyline fill="none" stroke="black" points="1413.48,-139.9 1413.48,-158.9 "/>
<text text-anchor="start" x="1400.48" y="-146.3" font-family="sans-serif" font-size="12.00">U</text>
<polygon fill="white" stroke="transparent" points="1413.48,-139.9 1413.48,-158.9 1446.48,-158.9 1446.48,-139.9 1413.48,-139.9"/>
<polygon fill="none" stroke="black" points="1413.48,-139.9 1413.48,-158.9 1446.48,-158.9 1446.48,-139.9 1413.48,-139.9"/>
<text text-anchor="start" x="1416.48" y="-146.3" font-family="sans-serif" font-size="12.00">OHS</text>
</g>
<!-- RuesThirdPartyContext -->
<g id="node6" class="node">
<title>RuesThirdPartyContext</title>
<polygon fill="none" stroke="black" stroke-width="2" points="2071.47,-196.73 2069.12,-199.54 2066.35,-202.31 2063.18,-205.02 2059.6,-207.66 2055.63,-210.22 2051.29,-212.69 2046.59,-215.06 2041.53,-217.33 2036.15,-219.47 2030.44,-221.5 2024.44,-223.39 2018.15,-225.14 2011.59,-226.75 2004.79,-228.2 1997.75,-229.51 1990.51,-230.66 1983.07,-231.65 1975.47,-232.49 1967.71,-233.16 1959.82,-233.67 1951.82,-234.02 1943.73,-234.22 1935.58,-234.26 1927.37,-234.14 1919.13,-233.88 1910.89,-233.48 1902.66,-232.94 1894.47,-232.26 1886.33,-231.45 1878.26,-230.52 1870.29,-229.48 1862.43,-228.33 1854.71,-227.08 1847.14,-225.73 1839.74,-224.3 1832.53,-222.78 1825.54,-221.2 1818.77,-219.54 1812.24,-217.83 1805.97,-216.07 1799.99,-214.25 1794.29,-212.4 1788.91,-210.52 1783.84,-208.61 1779.12,-206.67 1774.74,-204.71 1770.73,-202.75 1767.09,-200.77 1763.84,-198.79 1760.98,-196.8 1758.52,-194.81 1756.48,-192.83 1754.85,-190.86 1753.65,-188.89 1752.88,-186.94 1752.55,-184.99 1752.65,-183.06 1753.19,-181.14 1754.17,-179.24 1755.59,-177.36 1757.45,-175.5 1759.74,-173.65 1762.46,-171.83 1765.61,-170.03 1769.17,-168.25 1773.14,-166.5 1777.51,-164.78 1782.27,-163.08 1787.41,-161.42 1792.91,-159.79 1798.76,-158.2 1804.94,-156.65 1811.45,-155.14 1818.25,-153.68 1825.34,-152.28 1832.68,-150.93 1840.27,-149.63 1848.08,-148.41 1856.09,-147.25 1864.27,-146.17 1872.61,-145.17 1881.07,-144.25 1889.63,-143.43 1898.27,-142.7 1906.96,-142.08 1915.68,-141.56 1924.4,-141.16 1933.09,-140.87 1941.73,-140.71 1950.3,-140.67 1958.76,-140.77 1967.09,-141 1975.27,-141.36 1983.28,-141.87 1991.08,-142.52 1998.66,-143.31 2005.99,-144.25 2013.05,-145.34 2019.83,-146.57 2026.3,-147.94 2032.44,-149.45 2038.24,-151.1 2043.68,-152.88 2048.74,-154.79 2053.41,-156.83 2057.69,-158.99 2061.54,-161.26 2064.98,-163.63 2067.98,-166.09 2070.55,-168.65 2072.67,-171.28 2074.34,-173.98 2075.56,-176.74 2076.33,-179.55 2076.64,-182.39 2076.5,-185.26 2075.91,-188.14 2074.87,-191.02 2073.38,-193.89 2071.47,-196.73"/>
<text text-anchor="middle" x="1913.91" y="-182.52" font-family="sans-serif" font-size="16.00">RuesThirdPartyContext</text>
</g>
<!-- RuesThirdPartyContext&#45;&gt;ContratosAlpesMonolitoContext -->
<g id="edge5" class="edge">
<title>RuesThirdPartyContext&#45;&gt;ContratosAlpesMonolitoContext</title>
<path fill="none" stroke="black" stroke-width="2" d="M1812.09,-154.88C1789.13,-148.63 1764.79,-142.48 1741.91,-137.61 1595.89,-106.5 1428.15,-82.03 1304.93,-66.13"/>
<text text-anchor="middle" x="1717.41" y="-110.01" font-family="sans-serif" font-size="12.00"> &#160;&#160;&#160;&#160;&#160;&#160;&#160;&#160;&#160;&#160;&#160;&#160;&#160;&#160;&#160;&#160;&#160;&#160;&#160;&#160;&#160;&#160;&#160;&#160;&#160;&#160;&#160;&#160;&#160;&#160;&#160;&#160;&#160;&#160;&#160;&#160;&#160;&#160;&#160;</text>
<polygon fill="white" stroke="transparent" points="1285.93,-56.13 1285.93,-75.13 1301.93,-75.13 1301.93,-56.13 1285.93,-56.13"/>
<polyline fill="none" stroke="black" points="1301.93,-56.13 1301.93,-75.13 "/>
<text text-anchor="start" x="1288.93" y="-62.53" font-family="sans-serif" font-size="12.00">D</text>
<polygon fill="white" stroke="transparent" points="1301.93,-56.13 1301.93,-75.13 1323.93,-75.13 1323.93,-56.13 1301.93,-56.13"/>
<polygon fill="none" stroke="black" points="1301.93,-56.13 1301.93,-75.13 1323.93,-75.13 1323.93,-56.13 1301.93,-56.13"/>
<text text-anchor="start" x="1304.93" y="-62.53" font-family="sans-serif" font-size="12.00">CF</text>
<polygon fill="white" stroke="transparent" points="1788.09,-144.88 1788.09,-163.88 1804.09,-163.88 1804.09,-144.88 1788.09,-144.88"/>
<polyline fill="none" stroke="black" points="1804.09,-144.88 1804.09,-163.88 "/>
<text text-anchor="start" x="1791.09" y="-151.28" font-family="sans-serif" font-size="12.00">U</text>
<polygon fill="white" stroke="transparent" points="1804.09,-144.88 1804.09,-163.88 1837.09,-163.88 1837.09,-144.88 1804.09,-144.88"/>
<polygon fill="none" stroke="black" points="1804.09,-144.88 1804.09,-163.88 1837.09,-163.88 1837.09,-144.88 1804.09,-144.88"/>
<text text-anchor="start" x="1807.09" y="-151.28" font-family="sans-serif" font-size="12.00">OHS</text>
</g>
</g>
</svg>
