<svg width="2000px" height="771px"
 viewBox="0.00 0.00 2134.62 822.68" xmlns="http://www.w3.org/2000/svg" xmlns:xlink="http://www.w3.org/1999/xlink">
<g id="graph0" class="graph" transform="scale(1.0 1.0) rotate(0) translate(4 818.68)">
<title>ContextMapGraph</title>
<polygon fill="white" stroke="transparent" points="-4,4 -4,-818.68 2130.62,-818.68 2130.62,4 -4,4"/>
<!-- AuditoriaContext -->
<g id="node1" class="node">
<title>AuditoriaContext</title>
<polygon fill="none" stroke="black" stroke-width="2" points="815.96,-199.46 813.21,-196.75 810.81,-194.03 808.77,-191.3 807.11,-188.56 805.83,-185.84 804.94,-183.14 804.44,-180.47 804.34,-177.85 804.65,-175.27 805.36,-172.75 806.48,-170.3 808,-167.93 809.92,-165.64 812.23,-163.43 814.94,-161.33 818.02,-159.32 821.48,-157.42 825.3,-155.64 829.46,-153.96 833.96,-152.4 838.78,-150.96 843.9,-149.64 849.3,-148.44 854.98,-147.36 860.9,-146.4 867.04,-145.56 873.4,-144.84 879.93,-144.24 886.63,-143.75 893.46,-143.37 900.4,-143.11 907.44,-142.96 914.54,-142.9 921.69,-142.95 928.85,-143.1 936.01,-143.34 943.14,-143.68 950.22,-144.1 957.23,-144.61 964.14,-145.2 970.94,-145.86 977.61,-146.61 984.12,-147.42 990.45,-148.31 996.6,-149.26 1002.54,-150.28 1008.25,-151.36 1013.74,-152.5 1018.97,-153.7 1023.94,-154.97 1028.64,-156.28 1033.06,-157.66 1037.18,-159.09 1041.01,-160.57 1044.54,-162.11 1047.75,-163.7 1050.66,-165.34 1053.24,-167.03 1055.51,-168.76 1057.45,-170.55 1059.07,-172.39 1060.38,-174.27 1061.36,-176.19 1062.02,-178.15 1062.37,-180.16 1062.4,-182.2 1062.12,-184.28 1061.54,-186.38 1060.66,-188.52 1059.47,-190.67 1058,-192.85 1056.24,-195.04 1054.2,-197.24 1051.88,-199.44 1049.3,-201.64 1046.46,-203.83 1043.36,-206 1040.01,-208.15 1036.42,-210.27 1032.6,-212.35 1028.56,-214.38 1024.3,-216.36 1019.83,-218.28 1015.15,-220.13 1010.29,-221.9 1005.24,-223.58 1000.02,-225.17 994.63,-226.65 989.09,-228.03 983.41,-229.28 977.6,-230.41 971.66,-231.41 965.61,-232.28 959.47,-232.99 953.24,-233.56 946.94,-233.98 940.58,-234.24 934.18,-234.34 927.75,-234.28 921.3,-234.05 914.86,-233.65 908.44,-233.1 902.05,-232.37 895.72,-231.49 889.45,-230.44 883.27,-229.24 877.19,-227.89 871.24,-226.38 865.43,-224.74 859.78,-222.95 854.31,-221.04 849.03,-219.01 843.97,-216.86 839.14,-214.61 834.56,-212.26 830.25,-209.83 826.21,-207.32 822.48,-204.75 819.06,-202.13 815.96,-199.46"/>
<text text-anchor="middle" x="937.57" y="-181.87" font-family="sans-serif" font-size="16.00">AuditoriaContext</text>
</g>
<!-- ResultadosAnalisisContext -->
<g id="node2" class="node">
<title>ResultadosAnalisisContext</title>
<polygon fill="none" stroke="black" stroke-width="2" points="932.35,-87.75 920.47,-87.71 908.67,-87.55 897.01,-87.26 885.53,-86.86 874.28,-86.34 863.31,-85.71 852.64,-84.95 842.34,-84.08 832.42,-83.1 822.94,-82.01 813.92,-80.81 805.39,-79.51 797.37,-78.11 789.9,-76.61 783,-75.02 776.67,-73.34 770.93,-71.58 765.8,-69.74 761.28,-67.82 757.38,-65.84 754.09,-63.8 751.42,-61.7 749.36,-59.55 747.9,-57.36 747.03,-55.12 746.74,-52.86 747.01,-50.57 747.83,-48.26 749.18,-45.94 751.03,-43.62 753.38,-41.29 756.19,-38.98 759.43,-36.67 763.1,-34.39 767.15,-32.14 771.58,-29.92 776.35,-27.74 781.43,-25.61 786.82,-23.53 792.47,-21.51 798.38,-19.55 804.51,-17.66 810.85,-15.85 817.39,-14.11 824.09,-12.46 830.95,-10.9 837.95,-9.43 845.07,-8.06 852.31,-6.79 859.65,-5.62 867.08,-4.57 874.59,-3.62 882.18,-2.78 889.83,-2.05 897.54,-1.45 905.3,-0.96 913.11,-0.58 920.96,-0.33 928.85,-0.2 936.77,-0.19 944.72,-0.29 952.69,-0.52 960.68,-0.86 968.67,-1.32 976.67,-1.9 984.65,-2.58 992.62,-3.38 1000.56,-4.29 1008.47,-5.31 1016.31,-6.43 1024.09,-7.65 1031.79,-8.96 1039.38,-10.37 1046.85,-11.87 1054.18,-13.45 1061.34,-15.12 1068.32,-16.86 1075.09,-18.67 1081.62,-20.55 1087.89,-22.49 1093.87,-24.49 1099.53,-26.54 1104.85,-28.63 1109.79,-30.77 1114.34,-32.94 1118.46,-35.14 1122.12,-37.36 1125.3,-39.6 1127.98,-41.85 1130.12,-44.11 1131.71,-46.37 1132.73,-48.62 1133.16,-50.86 1132.98,-53.08 1132.18,-55.28 1130.75,-57.45 1128.67,-59.58 1125.95,-61.68 1122.58,-63.72 1118.56,-65.72 1113.9,-67.65 1108.6,-69.53 1102.68,-71.34 1096.15,-73.07 1089.02,-74.73 1081.32,-76.3 1073.08,-77.79 1064.32,-79.19 1055.07,-80.5 1045.37,-81.7 1035.24,-82.81 1024.74,-83.81 1013.9,-84.7 1002.77,-85.48 991.38,-86.15 979.79,-86.71 968.05,-87.14 956.19,-87.46 944.28,-87.67 932.35,-87.75"/>
<text text-anchor="middle" x="937.57" y="-40.12" font-family="sans-serif" font-size="16.00">ResultadosAnalisisContext</text>
</g>
<!-- AuditoriaContext&#45;&gt;ResultadosAnalisisContext -->
<g id="edge1" class="edge">
<title>AuditoriaContext&#45;&gt;ResultadosAnalisisContext</title>
<path fill="none" stroke="black" stroke-width="2" d="M937.57,-143.11C937.57,-125.74 937.57,-105.54 937.57,-88"/>
<text text-anchor="middle" x="1013.07" y="-109.23" font-family="sans-serif" font-size="12.00"> &#160;&#160;&#160;&#160;&#160;&#160;&#160;&#160;&#160;&#160;&#160;&#160;&#160;&#160;&#160;&#160;&#160;&#160;&#160;&#160;&#160;&#160;&#160;&#160;&#160;&#160;&#160;&#160;&#160;&#160;&#160;&#160;&#160;&#160;&#160;&#160;&#160;&#160;&#160;</text>
<polygon fill="white" stroke="transparent" points="930.57,-79 930.57,-96 944.57,-96 944.57,-79 930.57,-79"/>
<text text-anchor="start" x="932.57" y="-84.4" font-family="sans-serif" font-size="12.00">D</text>
<polygon fill="white" stroke="transparent" points="913.57,-133.11 913.57,-152.11 929.57,-152.11 929.57,-133.11 913.57,-133.11"/>
<polyline fill="none" stroke="black" points="929.57,-133.11 929.57,-152.11 "/>
<text text-anchor="start" x="916.57" y="-139.51" font-family="sans-serif" font-size="12.00">U</text>
<polygon fill="white" stroke="transparent" points="929.57,-133.11 929.57,-152.11 962.57,-152.11 962.57,-133.11 929.57,-133.11"/>
<polygon fill="none" stroke="black" points="929.57,-133.11 929.57,-152.11 962.57,-152.11 962.57,-133.11 929.57,-133.11"/>
<text text-anchor="start" x="932.57" y="-139.51" font-family="sans-serif" font-size="12.00">OHS</text>
</g>
<!-- CatastroContext -->
<g id="node3" class="node">
<title>CatastroContext</title>
<polygon fill="none" stroke="black" stroke-width="2" points="715.55,-622.65 715.02,-625.5 714.15,-628.32 712.94,-631.11 711.41,-633.85 709.55,-636.52 707.37,-639.13 704.87,-641.65 702.06,-644.08 698.95,-646.41 695.55,-648.63 691.86,-650.74 687.9,-652.72 683.67,-654.57 679.2,-656.29 674.48,-657.86 669.54,-659.3 664.39,-660.58 659.03,-661.72 653.5,-662.7 647.79,-663.54 641.93,-664.22 635.94,-664.75 629.82,-665.14 623.61,-665.37 617.3,-665.46 610.93,-665.42 604.51,-665.23 598.05,-664.91 591.58,-664.47 585.11,-663.9 578.66,-663.22 572.25,-662.42 565.9,-661.52 559.62,-660.52 553.44,-659.43 547.36,-658.25 541.4,-656.99 535.59,-655.66 529.94,-654.26 524.46,-652.79 519.16,-651.27 514.07,-649.7 509.2,-648.08 504.56,-646.42 500.16,-644.72 496.02,-642.99 492.14,-641.23 488.54,-639.45 485.23,-637.65 482.21,-635.82 479.49,-633.98 477.09,-632.13 475.01,-630.26 473.25,-628.39 471.81,-626.5 470.71,-624.61 469.94,-622.72 469.51,-620.82 469.42,-618.91 469.66,-617.01 470.24,-615.11 471.16,-613.2 472.4,-611.3 473.98,-609.41 475.88,-607.51 478.1,-605.63 480.63,-603.76 483.47,-601.9 486.6,-600.05 490.02,-598.23 493.73,-596.42 497.7,-594.64 501.93,-592.89 506.4,-591.18 511.11,-589.5 516.04,-587.86 521.18,-586.28 526.52,-584.75 532.03,-583.28 537.71,-581.87 543.53,-580.54 549.49,-579.29 555.57,-578.12 561.74,-577.04 568,-576.06 574.33,-575.19 580.71,-574.42 587.12,-573.78 593.54,-573.25 599.96,-572.85 606.36,-572.59 612.72,-572.46 619.03,-572.48 625.27,-572.64 631.42,-572.94 637.46,-573.4 643.39,-574.01 649.17,-574.77 654.8,-575.69 660.26,-576.76 665.54,-577.98 670.62,-579.35 675.49,-580.87 680.13,-582.53 684.53,-584.33 688.69,-586.26 692.58,-588.32 696.2,-590.49 699.53,-592.79 702.58,-595.18 705.33,-597.67 707.76,-600.24 709.89,-602.89 711.69,-605.61 713.17,-608.38 714.31,-611.19 715.13,-614.04 715.61,-616.9 715.75,-619.78 715.55,-622.65"/>
<text text-anchor="middle" x="592.57" y="-615.3" font-family="sans-serif" font-size="16.00">CatastroContext</text>
</g>
<!-- InformacionContext -->
<g id="node4" class="node">
<title>InformacionContext</title>
<polygon fill="none" stroke="black" stroke-width="2" points="1081.96,-471.75 1082.33,-474.62 1082.29,-477.48 1081.85,-480.32 1081.01,-483.11 1079.76,-485.86 1078.12,-488.54 1076.08,-491.16 1073.65,-493.7 1070.83,-496.15 1067.64,-498.5 1064.07,-500.74 1060.14,-502.87 1055.86,-504.88 1051.25,-506.76 1046.3,-508.52 1041.04,-510.14 1035.48,-511.61 1029.64,-512.95 1023.54,-514.14 1017.18,-515.19 1010.6,-516.09 1003.81,-516.85 996.82,-517.46 989.66,-517.93 982.36,-518.26 974.92,-518.45 967.38,-518.5 959.75,-518.42 952.07,-518.22 944.34,-517.89 936.6,-517.45 928.86,-516.89 921.16,-516.23 913.5,-515.46 905.92,-514.6 898.44,-513.65 891.07,-512.61 883.85,-511.49 876.78,-510.3 869.89,-509.04 863.21,-507.72 856.74,-506.33 850.51,-504.89 844.53,-503.41 838.83,-501.87 833.41,-500.3 828.29,-498.68 823.48,-497.03 819,-495.35 814.86,-493.64 811.06,-491.9 807.63,-490.13 804.56,-488.34 801.86,-486.53 799.54,-484.7 797.6,-482.85 796.06,-480.98 794.9,-479.1 794.13,-477.2 793.76,-475.28 793.78,-473.35 794.19,-471.42 794.99,-469.47 796.17,-467.51 797.73,-465.55 799.66,-463.58 801.96,-461.61 804.62,-459.65 807.63,-457.68 810.99,-455.73 814.67,-453.78 818.68,-451.85 823,-449.95 827.62,-448.06 832.53,-446.21 837.7,-444.39 843.14,-442.61 848.82,-440.88 854.73,-439.2 860.86,-437.58 867.18,-436.03 873.68,-434.56 880.35,-433.16 887.17,-431.85 894.12,-430.64 901.19,-429.53 908.35,-428.53 915.58,-427.64 922.88,-426.88 930.22,-426.24 937.58,-425.73 944.94,-425.37 952.29,-425.15 959.61,-425.08 966.87,-425.15 974.07,-425.39 981.17,-425.78 988.17,-426.32 995.04,-427.03 1001.77,-427.9 1008.33,-428.92 1014.72,-430.1 1020.91,-431.44 1026.89,-432.93 1032.63,-434.56 1038.13,-436.34 1043.38,-438.26 1048.34,-440.3 1053.02,-442.47 1057.39,-444.75 1061.44,-447.14 1065.17,-449.62 1068.56,-452.2 1071.59,-454.85 1074.27,-457.56 1076.57,-460.34 1078.5,-463.15 1080.05,-466 1081.2,-468.87 1081.96,-471.75"/>
<text text-anchor="middle" x="937.57" y="-468.99" font-family="sans-serif" font-size="16.00">InformacionContext</text>
</g>
<!-- CatastroContext&#45;&gt;InformacionContext -->
<g id="edge2" class="edge">
<title>CatastroContext&#45;&gt;InformacionContext</title>
<path fill="none" stroke="black" stroke-width="2" d="M679.18,-581.87C734.27,-558.83 805.05,-529.22 858.6,-506.82"/>
<text text-anchor="middle" x="851.07" y="-542.62" font-family="sans-serif" font-size="12.00"> &#160;&#160;&#160;&#160;&#160;&#160;&#160;&#160;&#160;&#160;&#160;&#160;&#160;&#160;&#160;&#160;&#160;&#160;&#160;&#160;&#160;&#160;&#160;&#160;&#160;&#160;&#160;&#160;&#160;&#160;&#160;&#160;&#160;&#160;&#160;&#160;&#160;&#160;&#160;</text>
<polygon fill="white" stroke="transparent" points="851.6,-497.82 851.6,-514.82 865.6,-514.82 865.6,-497.82 851.6,-497.82"/>
<text text-anchor="start" x="853.6" y="-503.22" font-family="sans-serif" font-size="12.00">D</text>
<polygon fill="white" stroke="transparent" points="655.18,-571.87 655.18,-590.87 671.18,-590.87 671.18,-571.87 655.18,-571.87"/>
<polyline fill="none" stroke="black" points="671.18,-571.87 671.18,-590.87 "/>
<text text-anchor="start" x="658.18" y="-578.27" font-family="sans-serif" font-size="12.00">U</text>
<polygon fill="white" stroke="transparent" points="671.18,-571.87 671.18,-590.87 704.18,-590.87 704.18,-571.87 671.18,-571.87"/>
<polygon fill="none" stroke="black" points="671.18,-571.87 671.18,-590.87 704.18,-590.87 704.18,-571.87 671.18,-571.87"/>
<text text-anchor="start" x="674.18" y="-578.27" font-family="sans-serif" font-size="12.00">OHS</text>
</g>
<!-- ProcesameintoDatosContext -->
<g id="node5" class="node">
<title>ProcesameintoDatosContext</title>
<polygon fill="none" stroke="black" stroke-width="2" points="870.75,-288.31 882.45,-287.27 894.26,-286.35 906.14,-285.56 918.04,-284.89 929.91,-284.36 941.7,-283.96 953.38,-283.7 964.89,-283.57 976.21,-283.59 987.28,-283.74 998.08,-284.04 1008.57,-284.48 1018.72,-285.05 1028.49,-285.77 1037.86,-286.62 1046.81,-287.61 1055.32,-288.72 1063.36,-289.97 1070.93,-291.33 1078,-292.82 1084.57,-294.41 1090.63,-296.12 1096.18,-297.93 1101.21,-299.83 1105.73,-301.82 1109.73,-303.9 1113.21,-306.05 1116.2,-308.26 1118.69,-310.53 1120.68,-312.86 1122.2,-315.23 1123.26,-317.63 1123.85,-320.06 1124.01,-322.5 1123.73,-324.96 1123.04,-327.42 1121.95,-329.87 1120.47,-332.31 1118.62,-334.72 1116.4,-337.11 1113.83,-339.46 1110.92,-341.76 1107.69,-344.02 1104.14,-346.22 1100.29,-348.35 1096.13,-350.42 1091.69,-352.42 1086.96,-354.33 1081.96,-356.16 1076.69,-357.91 1071.16,-359.56 1065.36,-361.12 1059.31,-362.58 1053.01,-363.95 1046.46,-365.21 1039.66,-366.36 1032.63,-367.41 1025.35,-368.36 1017.85,-369.19 1010.11,-369.92 1002.16,-370.54 993.98,-371.05 985.6,-371.45 977.02,-371.75 968.25,-371.94 959.3,-372.02 950.19,-372 940.92,-371.87 931.52,-371.64 922,-371.31 912.39,-370.89 902.69,-370.36 892.95,-369.74 883.18,-369.02 873.4,-368.22 863.66,-367.32 853.97,-366.34 844.37,-365.27 834.89,-364.11 825.57,-362.88 816.43,-361.57 807.53,-360.18 798.88,-358.71 790.53,-357.18 782.52,-355.58 774.88,-353.91 767.65,-352.18 760.86,-350.39 754.54,-348.54 748.74,-346.64 743.47,-344.69 738.78,-342.69 734.69,-340.65 731.22,-338.58 728.39,-336.47 726.24,-334.33 724.77,-332.16 724,-329.97 723.94,-327.77 724.6,-325.56 725.99,-323.34 728.1,-321.12 730.93,-318.91 734.48,-316.71 738.74,-314.53 743.68,-312.37 749.31,-310.25 755.59,-308.16 762.51,-306.11 770.03,-304.12 778.12,-302.18 786.76,-300.3 795.91,-298.5 805.53,-296.77 815.58,-295.12 826.01,-293.55 836.79,-292.09 847.88,-290.72 859.21,-289.46 870.75,-288.31"/>
<text text-anchor="middle" x="937.57" y="-325.63" font-family="sans-serif" font-size="16.00">ProcesameintoDatosContext</text>
</g>
<!-- InformacionContext&#45;&gt;ProcesameintoDatosContext -->
<g id="edge3" class="edge">
<title>InformacionContext&#45;&gt;ProcesameintoDatosContext</title>
<path fill="none" stroke="black" stroke-width="2" d="M937.57,-425.5C937.57,-408.27 937.57,-388.84 937.57,-372.05"/>
<text text-anchor="middle" x="1013.07" y="-396.76" font-family="sans-serif" font-size="12.00"> &#160;&#160;&#160;&#160;&#160;&#160;&#160;&#160;&#160;&#160;&#160;&#160;&#160;&#160;&#160;&#160;&#160;&#160;&#160;&#160;&#160;&#160;&#160;&#160;&#160;&#160;&#160;&#160;&#160;&#160;&#160;&#160;&#160;&#160;&#160;&#160;&#160;&#160;&#160;</text>
<polygon fill="white" stroke="transparent" points="930.57,-363.05 930.57,-380.05 944.57,-380.05 944.57,-363.05 930.57,-363.05"/>
<text text-anchor="start" x="932.57" y="-368.45" font-family="sans-serif" font-size="12.00">D</text>
<polygon fill="white" stroke="transparent" points="913.57,-415.5 913.57,-434.5 929.57,-434.5 929.57,-415.5 913.57,-415.5"/>
<polyline fill="none" stroke="black" points="929.57,-415.5 929.57,-434.5 "/>
<text text-anchor="start" x="916.57" y="-421.9" font-family="sans-serif" font-size="12.00">U</text>
<polygon fill="white" stroke="transparent" points="929.57,-415.5 929.57,-434.5 962.57,-434.5 962.57,-415.5 929.57,-415.5"/>
<polygon fill="none" stroke="black" points="929.57,-415.5 929.57,-434.5 962.57,-434.5 962.57,-415.5 929.57,-415.5"/>
<text text-anchor="start" x="932.57" y="-421.9" font-family="sans-serif" font-size="12.00">OHS</text>
</g>
<!-- ProcesameintoDatosContext&#45;&gt;AuditoriaContext -->
<g id="edge4" class="edge">
<title>ProcesameintoDatosContext&#45;&gt;AuditoriaContext</title>
<path fill="none" stroke="black" stroke-width="2" d="M937.57,-283.96C937.57,-268.21 937.57,-250.43 937.57,-234.41"/>
<text text-anchor="middle" x="1013.07" y="-255.9" font-family="sans-serif" font-size="12.00"> &#160;&#160;&#160;&#160;&#160;&#160;&#160;&#160;&#160;&#160;&#160;&#160;&#160;&#160;&#160;&#160;&#160;&#160;&#160;&#160;&#160;&#160;&#160;&#160;&#160;&#160;&#160;&#160;&#160;&#160;&#160;&#160;&#160;&#160;&#160;&#160;&#160;&#160;&#160;</text>
<polygon fill="white" stroke="transparent" points="930.57,-225.41 930.57,-242.41 944.57,-242.41 944.57,-225.41 930.57,-225.41"/>
<text text-anchor="start" x="932.57" y="-230.81" font-family="sans-serif" font-size="12.00">D</text>
<polygon fill="white" stroke="transparent" points="913.57,-273.96 913.57,-292.96 929.57,-292.96 929.57,-273.96 913.57,-273.96"/>
<polyline fill="none" stroke="black" points="929.57,-273.96 929.57,-292.96 "/>
<text text-anchor="start" x="916.57" y="-280.36" font-family="sans-serif" font-size="12.00">U</text>
<polygon fill="white" stroke="transparent" points="929.57,-273.96 929.57,-292.96 962.57,-292.96 962.57,-273.96 929.57,-273.96"/>
<polygon fill="none" stroke="black" points="929.57,-273.96 929.57,-292.96 962.57,-292.96 962.57,-273.96 929.57,-273.96"/>
<text text-anchor="start" x="932.57" y="-280.36" font-family="sans-serif" font-size="12.00">OHS</text>
</g>
<!-- CompaniasInquilinosContext -->
<g id="node6" class="node">
<title>CompaniasInquilinosContext</title>
<polygon fill="none" stroke="black" stroke-width="2" points="53.39,-635.06 48.56,-632.41 44.26,-629.73 40.51,-627.04 37.34,-624.34 34.75,-621.64 32.76,-618.95 31.38,-616.29 30.62,-613.67 30.48,-611.09 30.98,-608.56 32.11,-606.09 33.87,-603.69 36.26,-601.37 39.28,-599.12 42.91,-596.97 47.14,-594.91 51.97,-592.95 57.37,-591.09 63.32,-589.35 69.82,-587.71 76.83,-586.18 84.33,-584.77 92.29,-583.47 100.69,-582.29 109.49,-581.22 118.66,-580.28 128.18,-579.44 138,-578.72 148.1,-578.12 158.42,-577.62 168.95,-577.23 179.64,-576.95 190.46,-576.77 201.37,-576.69 212.32,-576.71 223.3,-576.83 234.25,-577.03 245.14,-577.33 255.94,-577.71 266.62,-578.17 277.15,-578.72 287.48,-579.34 297.59,-580.04 307.46,-580.81 317.05,-581.65 326.35,-582.56 335.32,-583.54 343.94,-584.59 352.2,-585.7 360.07,-586.87 367.55,-588.1 374.6,-589.4 381.23,-590.75 387.42,-592.17 393.15,-593.64 398.42,-595.17 403.23,-596.76 407.57,-598.4 411.43,-600.1 414.81,-601.85 417.72,-603.65 420.14,-605.51 422.09,-607.41 423.56,-609.36 424.56,-611.36 425.08,-613.4 425.15,-615.48 424.75,-617.6 423.9,-619.75 422.6,-621.92 420.86,-624.12 418.69,-626.35 416.09,-628.58 413.08,-630.82 409.66,-633.06 405.83,-635.3 401.61,-637.53 397.01,-639.74 392.04,-641.92 386.7,-644.07 381.01,-646.18 374.98,-648.23 368.61,-650.23 361.91,-652.16 354.91,-654.02 347.61,-655.79 340.02,-657.47 332.16,-659.05 324.03,-660.52 315.66,-661.88 307.06,-663.11 298.24,-664.22 289.22,-665.19 280.02,-666.02 270.66,-666.7 261.15,-667.23 251.52,-667.6 241.78,-667.81 231.96,-667.87 222.08,-667.75 212.17,-667.48 202.24,-667.03 192.34,-666.43 182.47,-665.65 172.67,-664.72 162.97,-663.63 153.39,-662.38 143.96,-660.99 134.72,-659.45 125.69,-657.76 116.9,-655.95 108.38,-654.01 100.16,-651.96 92.27,-649.79 84.73,-647.53 77.59,-645.18 70.85,-642.74 64.56,-640.24 58.73,-637.68 53.39,-635.06"/>
<text text-anchor="middle" x="235.57" y="-615.3" font-family="sans-serif" font-size="16.00">CompaniasInquilinosContext</text>
</g>
<!-- CompaniasInquilinosContext&#45;&gt;InformacionContext -->
<g id="edge5" class="edge">
<title>CompaniasInquilinosContext&#45;&gt;InformacionContext</title>
<path fill="none" stroke="black" stroke-width="2" d="M369.77,-588.39C438.69,-573.31 524.04,-554.92 600.57,-539.22 673.41,-524.28 755.28,-508.36 820.09,-495.97"/>
<text text-anchor="middle" x="676.07" y="-542.62" font-family="sans-serif" font-size="12.00"> &#160;&#160;&#160;&#160;&#160;&#160;&#160;&#160;&#160;&#160;&#160;&#160;&#160;&#160;&#160;&#160;&#160;&#160;&#160;&#160;&#160;&#160;&#160;&#160;&#160;&#160;&#160;&#160;&#160;&#160;&#160;&#160;&#160;&#160;&#160;&#160;&#160;&#160;&#160;</text>
<polygon fill="white" stroke="transparent" points="813.09,-486.97 813.09,-503.97 827.09,-503.97 827.09,-486.97 813.09,-486.97"/>
<text text-anchor="start" x="815.09" y="-492.37" font-family="sans-serif" font-size="12.00">D</text>
<polygon fill="white" stroke="transparent" points="345.77,-578.39 345.77,-597.39 361.77,-597.39 361.77,-578.39 345.77,-578.39"/>
<polyline fill="none" stroke="black" points="361.77,-578.39 361.77,-597.39 "/>
<text text-anchor="start" x="348.77" y="-584.79" font-family="sans-serif" font-size="12.00">U</text>
<polygon fill="white" stroke="transparent" points="361.77,-578.39 361.77,-597.39 394.77,-597.39 394.77,-578.39 361.77,-578.39"/>
<polygon fill="none" stroke="black" points="361.77,-578.39 361.77,-597.39 394.77,-597.39 394.77,-578.39 361.77,-578.39"/>
<text text-anchor="start" x="364.77" y="-584.79" font-family="sans-serif" font-size="12.00">OHS</text>
</g>
<!-- ComparativoVentasContext -->
<g id="node7" class="node">
<title>ComparativoVentasContext</title>
<polygon fill="none" stroke="black" stroke-width="2" points="2036.74,-447.4 2043.99,-449.72 2050.77,-452.09 2057.05,-454.5 2062.81,-456.95 2068.02,-459.43 2072.66,-461.93 2076.7,-464.44 2080.13,-466.95 2082.93,-469.45 2085.09,-471.93 2086.6,-474.39 2087.44,-476.82 2087.62,-479.2 2087.14,-481.55 2085.99,-483.83 2084.18,-486.06 2081.72,-488.23 2078.61,-490.32 2074.87,-492.35 2070.52,-494.29 2065.58,-496.15 2060.06,-497.93 2053.98,-499.63 2047.39,-501.23 2040.29,-502.74 2032.73,-504.16 2024.73,-505.48 2016.32,-506.72 2007.55,-507.85 1998.44,-508.9 1989.04,-509.84 1979.37,-510.7 1969.48,-511.46 1959.4,-512.13 1949.17,-512.7 1938.83,-513.18 1928.42,-513.58 1917.96,-513.88 1907.5,-514.1 1897.07,-514.23 1886.71,-514.27 1876.44,-514.22 1866.29,-514.1 1856.3,-513.88 1846.49,-513.58 1836.89,-513.2 1827.52,-512.74 1818.4,-512.19 1809.56,-511.56 1801.01,-510.85 1792.77,-510.06 1784.85,-509.18 1777.27,-508.23 1770.05,-507.19 1763.18,-506.07 1756.68,-504.87 1750.55,-503.59 1744.81,-502.23 1739.45,-500.79 1734.49,-499.27 1729.91,-497.68 1725.73,-496.01 1721.94,-494.26 1718.55,-492.45 1715.55,-490.56 1712.94,-488.61 1710.73,-486.59 1708.9,-484.52 1707.47,-482.38 1706.42,-480.2 1705.76,-477.97 1705.48,-475.69 1705.58,-473.38 1706.07,-471.04 1706.93,-468.67 1708.17,-466.29 1709.79,-463.9 1711.79,-461.51 1714.16,-459.12 1716.9,-456.74 1720.02,-454.39 1723.51,-452.06 1727.37,-449.77 1731.61,-447.54 1736.21,-445.35 1741.17,-443.24 1746.5,-441.19 1752.19,-439.23 1758.23,-437.36 1764.62,-435.59 1771.35,-433.92 1778.42,-432.37 1785.82,-430.94 1793.53,-429.63 1801.55,-428.47 1809.85,-427.44 1818.44,-426.55 1827.29,-425.82 1836.38,-425.23 1845.7,-424.81 1855.22,-424.54 1864.93,-424.43 1874.79,-424.48 1884.78,-424.7 1894.88,-425.07 1905.05,-425.6 1915.26,-426.29 1925.49,-427.14 1935.7,-428.14 1945.85,-429.28 1955.92,-430.56 1965.87,-431.98 1975.65,-433.53 1985.25,-435.21 1994.61,-437 2003.71,-438.89 2012.51,-440.89 2020.97,-442.98 2029.05,-445.16 2036.74,-447.4"/>
<text text-anchor="middle" x="1883.57" y="-468.99" font-family="sans-serif" font-size="16.00">ComparativoVentasContext</text>
</g>
<!-- ContratosAlpesThirdPartyContext -->
<g id="node8" class="node">
<title>ContratosAlpesThirdPartyContext</title>
<polygon fill="none" stroke="black" stroke-width="2" points="1851.43,-722.31 1865.7,-721.85 1879.96,-721.51 1894.16,-721.3 1908.25,-721.21 1922.18,-721.25 1935.88,-721.42 1949.3,-721.72 1962.4,-722.15 1975.12,-722.7 1987.43,-723.38 1999.28,-724.19 2010.63,-725.12 2021.45,-726.16 2031.71,-727.33 2041.37,-728.61 2050.41,-730 2058.82,-731.5 2066.57,-733.11 2073.66,-734.81 2080.07,-736.6 2085.79,-738.48 2090.83,-740.44 2095.18,-742.48 2098.85,-744.59 2101.85,-746.76 2104.18,-748.98 2105.86,-751.26 2106.89,-753.57 2107.31,-755.92 2107.12,-758.29 2106.35,-760.69 2105.02,-763.1 2103.15,-765.51 2100.76,-767.91 2097.88,-770.31 2094.52,-772.69 2090.73,-775.04 2086.5,-777.36 2081.88,-779.64 2076.88,-781.88 2071.53,-784.06 2065.84,-786.18 2059.84,-788.24 2053.53,-790.23 2046.95,-792.14 2040.11,-793.97 2033.02,-795.72 2025.69,-797.37 2018.14,-798.93 2010.37,-800.39 2002.41,-801.75 1994.25,-803.01 1985.9,-804.15 1977.38,-805.19 1968.68,-806.11 1959.82,-806.92 1950.8,-807.62 1941.62,-808.2 1932.29,-808.66 1922.82,-809.01 1913.21,-809.23 1903.47,-809.35 1893.61,-809.34 1883.64,-809.22 1873.57,-808.99 1863.4,-808.65 1853.16,-808.19 1842.86,-807.63 1832.52,-806.95 1822.14,-806.18 1811.76,-805.3 1801.4,-804.32 1791.08,-803.25 1780.82,-802.08 1770.66,-800.83 1760.63,-799.48 1750.75,-798.06 1741.06,-796.55 1731.6,-794.97 1722.4,-793.31 1713.49,-791.59 1704.92,-789.8 1696.71,-787.96 1688.92,-786.05 1681.58,-784.1 1674.73,-782.1 1668.4,-780.06 1662.63,-777.98 1657.45,-775.86 1652.91,-773.72 1649.02,-771.56 1645.83,-769.38 1643.36,-767.18 1641.63,-764.98 1640.66,-762.77 1640.48,-760.57 1641.1,-758.38 1642.52,-756.19 1644.76,-754.03 1647.83,-751.89 1651.71,-749.78 1656.41,-747.71 1661.92,-745.67 1668.22,-743.69 1675.3,-741.75 1683.13,-739.87 1691.69,-738.05 1700.96,-736.3 1710.89,-734.62 1721.45,-733.02 1732.6,-731.51 1744.29,-730.08 1756.48,-728.74 1769.13,-727.5 1782.17,-726.36 1795.56,-725.33 1809.24,-724.4 1823.15,-723.59 1837.23,-722.89 1851.43,-722.31"/>
<text text-anchor="middle" x="1883.57" y="-762.03" font-family="sans-serif" font-size="16.00">ContratosAlpesThirdPartyContext</text>
</g>
<!-- ContratosTransacionesContext -->
<g id="node9" class="node">
<title>ContratosTransacionesContext</title>
<polygon fill="none" stroke="black" stroke-width="2" points="1829.17,-576.91 1842.06,-576.11 1855.02,-575.44 1868,-574.88 1880.94,-574.46 1893.8,-574.17 1906.53,-574 1919.07,-573.97 1931.39,-574.08 1943.44,-574.32 1955.17,-574.69 1966.56,-575.2 1977.55,-575.84 1988.12,-576.62 1998.24,-577.52 2007.88,-578.55 2017.01,-579.71 2025.62,-580.99 2033.68,-582.38 2041.18,-583.89 2048.1,-585.51 2054.45,-587.23 2060.21,-589.04 2065.39,-590.95 2069.97,-592.94 2073.96,-595.01 2077.38,-597.15 2080.22,-599.35 2082.49,-601.61 2084.21,-603.92 2085.39,-606.27 2086.05,-608.65 2086.19,-611.06 2085.83,-613.49 2085,-615.92 2083.71,-618.35 2081.97,-620.78 2079.8,-623.2 2077.23,-625.59 2074.27,-627.95 2070.93,-630.28 2067.24,-632.56 2063.2,-634.8 2058.84,-636.98 2054.16,-639.09 2049.18,-641.14 2043.91,-643.11 2038.36,-645 2032.55,-646.81 2026.47,-648.53 2020.15,-650.16 2013.58,-651.69 2006.77,-653.13 1999.72,-654.46 1992.46,-655.69 1984.96,-656.81 1977.25,-657.83 1969.33,-658.73 1961.2,-659.52 1952.86,-660.21 1944.32,-660.77 1935.59,-661.23 1926.68,-661.58 1917.59,-661.81 1908.33,-661.94 1898.91,-661.95 1889.34,-661.85 1879.64,-661.65 1869.82,-661.34 1859.9,-660.93 1849.89,-660.41 1839.82,-659.8 1829.71,-659.08 1819.59,-658.27 1809.47,-657.37 1799.39,-656.37 1789.37,-655.29 1779.45,-654.12 1769.66,-652.86 1760.03,-651.53 1750.61,-650.12 1741.41,-648.63 1732.49,-647.07 1723.88,-645.45 1715.62,-643.76 1707.74,-642.01 1700.28,-640.2 1693.28,-638.33 1686.77,-636.42 1680.8,-634.46 1675.39,-632.45 1670.58,-630.41 1666.4,-628.33 1662.87,-626.23 1660.02,-624.09 1657.87,-621.94 1656.45,-619.77 1655.77,-617.59 1655.84,-615.4 1656.68,-613.21 1658.29,-611.02 1660.67,-608.85 1663.82,-606.69 1667.74,-604.55 1672.42,-602.43 1677.84,-600.35 1683.99,-598.31 1690.86,-596.3 1698.4,-594.35 1706.6,-592.46 1715.43,-590.62 1724.84,-588.86 1734.81,-587.17 1745.29,-585.55 1756.25,-584.02 1767.62,-582.58 1779.38,-581.24 1791.46,-579.99 1803.82,-578.86 1816.41,-577.83 1829.17,-576.91"/>
<text text-anchor="middle" x="1883.57" y="-615.3" font-family="sans-serif" font-size="16.00">ContratosTransacionesContext</text>
</g>
<!-- ContratosAlpesThirdPartyContext&#45;&gt;ContratosTransacionesContext -->
<g id="edge6" class="edge">
<title>ContratosAlpesThirdPartyContext&#45;&gt;ContratosTransacionesContext</title>
<path fill="none" stroke="black" stroke-width="2" d="M1883.57,-721.41C1883.57,-702.59 1883.57,-680.65 1883.57,-662"/>
<text text-anchor="middle" x="1959.07" y="-689.38" font-family="sans-serif" font-size="12.00"> &#160;&#160;&#160;&#160;&#160;&#160;&#160;&#160;&#160;&#160;&#160;&#160;&#160;&#160;&#160;&#160;&#160;&#160;&#160;&#160;&#160;&#160;&#160;&#160;&#160;&#160;&#160;&#160;&#160;&#160;&#160;&#160;&#160;&#160;&#160;&#160;&#160;&#160;&#160;</text>
<polygon fill="white" stroke="transparent" points="1860.57,-652 1860.57,-671 1876.57,-671 1876.57,-652 1860.57,-652"/>
<polyline fill="none" stroke="black" points="1876.57,-652 1876.57,-671 "/>
<text text-anchor="start" x="1863.57" y="-658.4" font-family="sans-serif" font-size="12.00">D</text>
<polygon fill="white" stroke="transparent" points="1876.57,-652 1876.57,-671 1906.57,-671 1906.57,-652 1876.57,-652"/>
<polygon fill="none" stroke="black" points="1876.57,-652 1876.57,-671 1906.57,-671 1906.57,-652 1876.57,-652"/>
<text text-anchor="start" x="1879.57" y="-658.4" font-family="sans-serif" font-size="12.00">ACL</text>
<polygon fill="white" stroke="transparent" points="1859.57,-711.41 1859.57,-730.41 1875.57,-730.41 1875.57,-711.41 1859.57,-711.41"/>
<polyline fill="none" stroke="black" points="1875.57,-711.41 1875.57,-730.41 "/>
<text text-anchor="start" x="1862.57" y="-717.81" font-family="sans-serif" font-size="12.00">U</text>
<polygon fill="white" stroke="transparent" points="1875.57,-711.41 1875.57,-730.41 1908.57,-730.41 1908.57,-711.41 1875.57,-711.41"/>
<polygon fill="none" stroke="black" points="1875.57,-711.41 1875.57,-730.41 1908.57,-730.41 1908.57,-711.41 1875.57,-711.41"/>
<text text-anchor="start" x="1878.57" y="-717.81" font-family="sans-serif" font-size="12.00">OHS</text>
</g>
<!-- ContratosTransacionesContext&#45;&gt;InformacionContext -->
<g id="edge7" class="edge">
<title>ContratosTransacionesContext&#45;&gt;InformacionContext</title>
<path fill="none" stroke="black" stroke-width="2" d="M1736.56,-586.88C1706.83,-580.99 1675.75,-575.15 1646.57,-570.22 1449.67,-536.98 1220.49,-507.46 1077.21,-490.1"/>
<text text-anchor="middle" x="1606.07" y="-542.62" font-family="sans-serif" font-size="12.00"> &#160;&#160;&#160;&#160;&#160;&#160;&#160;&#160;&#160;&#160;&#160;&#160;&#160;&#160;&#160;&#160;&#160;&#160;&#160;&#160;&#160;&#160;&#160;&#160;&#160;&#160;&#160;&#160;&#160;&#160;&#160;&#160;&#160;&#160;&#160;&#160;&#160;&#160;&#160;</text>
<polygon fill="white" stroke="transparent" points="1070.21,-481.1 1070.21,-498.1 1084.21,-498.1 1084.21,-481.1 1070.21,-481.1"/>
<text text-anchor="start" x="1072.21" y="-486.5" font-family="sans-serif" font-size="12.00">D</text>
<polygon fill="white" stroke="transparent" points="1712.56,-576.88 1712.56,-595.88 1728.56,-595.88 1728.56,-576.88 1712.56,-576.88"/>
<polyline fill="none" stroke="black" points="1728.56,-576.88 1728.56,-595.88 "/>
<text text-anchor="start" x="1715.56" y="-583.28" font-family="sans-serif" font-size="12.00">U</text>
<polygon fill="white" stroke="transparent" points="1728.56,-576.88 1728.56,-595.88 1761.56,-595.88 1761.56,-576.88 1728.56,-576.88"/>
<polygon fill="none" stroke="black" points="1728.56,-576.88 1728.56,-595.88 1761.56,-595.88 1761.56,-576.88 1728.56,-576.88"/>
<text text-anchor="start" x="1731.56" y="-583.28" font-family="sans-serif" font-size="12.00">OHS</text>
</g>
<!-- ContratosTransacionesContext&#45;&gt;ComparativoVentasContext -->
<g id="edge8" class="edge">
<title>ContratosTransacionesContext&#45;&gt;ComparativoVentasContext</title>
<path fill="none" stroke="black" stroke-width="2" d="M1883.57,-574.02C1883.57,-555.12 1883.57,-533.18 1883.57,-514.65"/>
<text text-anchor="middle" x="1918.07" y="-542.62" font-family="sans-serif" font-size="12.00">Partnership</text>
</g>
<!-- GoogleMapsThirdPartyContext -->
<g id="node10" class="node">
<title>GoogleMapsThirdPartyContext</title>
<polygon fill="none" stroke="black" stroke-width="2" points="1014.77,-723.32 1027.7,-724.05 1040.4,-724.9 1052.82,-725.86 1064.9,-726.93 1076.59,-728.1 1087.86,-729.36 1098.65,-730.73 1108.92,-732.18 1118.63,-733.72 1127.75,-735.35 1136.25,-737.05 1144.1,-738.82 1151.26,-740.66 1157.73,-742.56 1163.47,-744.52 1168.49,-746.53 1172.76,-748.59 1176.28,-750.69 1179.06,-752.83 1181.08,-754.99 1182.36,-757.18 1182.91,-759.39 1182.73,-761.61 1181.85,-763.84 1180.28,-766.07 1178.04,-768.3 1175.15,-770.52 1171.65,-772.73 1167.56,-774.91 1162.91,-777.08 1157.72,-779.21 1152.04,-781.31 1145.89,-783.37 1139.32,-785.38 1132.34,-787.34 1125.01,-789.25 1117.34,-791.1 1109.38,-792.88 1101.15,-794.6 1092.69,-796.24 1084.03,-797.81 1075.2,-799.3 1066.23,-800.7 1057.14,-802.01 1047.95,-803.22 1038.7,-804.35 1029.4,-805.37 1020.07,-806.29 1010.73,-807.11 1001.4,-807.82 992.09,-808.42 982.82,-808.9 973.59,-809.28 964.42,-809.53 955.32,-809.68 946.29,-809.7 937.34,-809.6 928.48,-809.39 919.72,-809.06 911.05,-808.6 902.49,-808.03 894.04,-807.35 885.71,-806.54 877.5,-805.62 869.42,-804.59 861.48,-803.45 853.68,-802.2 846.04,-800.85 838.56,-799.39 831.26,-797.84 824.14,-796.19 817.23,-794.45 810.53,-792.63 804.06,-790.73 797.85,-788.75 791.91,-786.7 786.25,-784.59 780.91,-782.42 775.9,-780.2 771.25,-777.94 766.98,-775.63 763.11,-773.3 759.67,-770.94 756.68,-768.56 754.17,-766.18 752.16,-763.79 750.67,-761.4 749.73,-759.02 749.35,-756.67 749.56,-754.33 750.37,-752.04 751.8,-749.78 753.86,-747.56 756.57,-745.4 759.92,-743.3 763.94,-741.27 768.62,-739.3 773.95,-737.42 779.94,-735.62 786.58,-733.91 793.86,-732.29 801.76,-730.77 810.27,-729.35 819.36,-728.04 829.01,-726.84 839.19,-725.75 849.88,-724.78 861.02,-723.93 872.59,-723.19 884.55,-722.59 896.85,-722.1 909.45,-721.74 922.29,-721.5 935.33,-721.39 948.52,-721.41 961.8,-721.55 975.12,-721.81 988.43,-722.19 1001.66,-722.69 1014.77,-723.32"/>
<text text-anchor="middle" x="959.57" y="-762.03" font-family="sans-serif" font-size="16.00">GoogleMapsThirdPartyContext</text>
</g>
<!-- LocalizacionContext -->
<g id="node11" class="node">
<title>LocalizacionContext</title>
<polygon fill="none" stroke="black" stroke-width="2" points="1048.92,-590.64 1055.21,-592.81 1061.15,-595.03 1066.72,-597.31 1071.9,-599.64 1076.66,-602.01 1080.98,-604.41 1084.84,-606.83 1088.22,-609.26 1091.12,-611.7 1093.51,-614.13 1095.4,-616.56 1096.76,-618.96 1097.59,-621.34 1097.9,-623.69 1097.67,-625.99 1096.91,-628.26 1095.63,-630.47 1093.83,-632.62 1091.52,-634.72 1088.72,-636.75 1085.42,-638.71 1081.66,-640.59 1077.45,-642.41 1072.8,-644.14 1067.74,-645.79 1062.28,-647.36 1056.47,-648.85 1050.31,-650.25 1043.84,-651.56 1037.09,-652.79 1030.07,-653.93 1022.83,-654.98 1015.38,-655.94 1007.76,-656.81 1000,-657.59 992.13,-658.29 984.17,-658.89 976.16,-659.41 968.11,-659.84 960.07,-660.18 952.04,-660.43 944.07,-660.6 936.17,-660.67 928.36,-660.66 920.67,-660.57 913.12,-660.38 905.72,-660.11 898.5,-659.75 891.46,-659.3 884.63,-658.77 878.01,-658.15 871.62,-657.43 865.47,-656.63 859.57,-655.75 853.92,-654.77 848.53,-653.71 843.41,-652.55 838.57,-651.31 834,-649.98 829.71,-648.57 825.7,-647.07 821.97,-645.49 818.53,-643.83 815.37,-642.08 812.5,-640.26 809.91,-638.37 807.61,-636.4 805.59,-634.37 803.86,-632.27 802.41,-630.11 801.25,-627.89 800.38,-625.63 799.79,-623.32 799.48,-620.98 799.46,-618.6 799.74,-616.2 800.3,-613.77 801.15,-611.34 802.29,-608.91 803.73,-606.48 805.46,-604.07 807.49,-601.68 809.82,-599.32 812.45,-597 815.39,-594.73 818.62,-592.51 822.16,-590.37 826,-588.29 830.13,-586.3 834.57,-584.4 839.31,-582.6 844.34,-580.91 849.65,-579.33 855.25,-577.87 861.13,-576.54 867.27,-575.35 873.67,-574.29 880.31,-573.37 887.19,-572.61 894.29,-571.99 901.59,-571.53 909.08,-571.22 916.74,-571.07 924.55,-571.08 932.48,-571.25 940.52,-571.58 948.64,-572.06 956.81,-572.69 965.01,-573.48 973.21,-574.41 981.39,-575.49 989.51,-576.7 997.55,-578.05 1005.47,-579.52 1013.25,-581.12 1020.85,-582.83 1028.25,-584.64 1035.41,-586.55 1042.31,-588.56 1048.92,-590.64"/>
<text text-anchor="middle" x="937.57" y="-615.3" font-family="sans-serif" font-size="16.00">LocalizacionContext</text>
</g>
<!-- GoogleMapsThirdPartyContext&#45;&gt;LocalizacionContext -->
<g id="edge9" class="edge">
<title>GoogleMapsThirdPartyContext&#45;&gt;LocalizacionContext</title>
<path fill="none" stroke="black" stroke-width="2" d="M952.97,-721.41C950.06,-702.26 946.66,-679.87 943.79,-661.02"/>
<text text-anchor="middle" x="1024.07" y="-689.38" font-family="sans-serif" font-size="12.00"> &#160;&#160;&#160;&#160;&#160;&#160;&#160;&#160;&#160;&#160;&#160;&#160;&#160;&#160;&#160;&#160;&#160;&#160;&#160;&#160;&#160;&#160;&#160;&#160;&#160;&#160;&#160;&#160;&#160;&#160;&#160;&#160;&#160;&#160;&#160;&#160;&#160;&#160;&#160;</text>
<polygon fill="white" stroke="transparent" points="920.79,-651.02 920.79,-670.02 936.79,-670.02 936.79,-651.02 920.79,-651.02"/>
<polyline fill="none" stroke="black" points="936.79,-651.02 936.79,-670.02 "/>
<text text-anchor="start" x="923.79" y="-657.42" font-family="sans-serif" font-size="12.00">D</text>
<polygon fill="white" stroke="transparent" points="936.79,-651.02 936.79,-670.02 966.79,-670.02 966.79,-651.02 936.79,-651.02"/>
<polygon fill="none" stroke="black" points="936.79,-651.02 936.79,-670.02 966.79,-670.02 966.79,-651.02 936.79,-651.02"/>
<text text-anchor="start" x="939.79" y="-657.42" font-family="sans-serif" font-size="12.00">ACL</text>
<polygon fill="white" stroke="transparent" points="928.97,-711.41 928.97,-730.41 944.97,-730.41 944.97,-711.41 928.97,-711.41"/>
<polyline fill="none" stroke="black" points="944.97,-711.41 944.97,-730.41 "/>
<text text-anchor="start" x="931.97" y="-717.81" font-family="sans-serif" font-size="12.00">U</text>
<polygon fill="white" stroke="transparent" points="944.97,-711.41 944.97,-730.41 977.97,-730.41 977.97,-711.41 944.97,-711.41"/>
<polygon fill="none" stroke="black" points="944.97,-711.41 944.97,-730.41 977.97,-730.41 977.97,-711.41 944.97,-711.41"/>
<text text-anchor="start" x="947.97" y="-717.81" font-family="sans-serif" font-size="12.00">OHS</text>
</g>
<!-- LocalizacionContext&#45;&gt;InformacionContext -->
<g id="edge10" class="edge">
<title>LocalizacionContext&#45;&gt;InformacionContext</title>
<path fill="none" stroke="black" stroke-width="2" d="M937.57,-571.25C937.57,-554.13 937.57,-534.84 937.57,-517.96"/>
<text text-anchor="middle" x="1013.07" y="-542.62" font-family="sans-serif" font-size="12.00"> &#160;&#160;&#160;&#160;&#160;&#160;&#160;&#160;&#160;&#160;&#160;&#160;&#160;&#160;&#160;&#160;&#160;&#160;&#160;&#160;&#160;&#160;&#160;&#160;&#160;&#160;&#160;&#160;&#160;&#160;&#160;&#160;&#160;&#160;&#160;&#160;&#160;&#160;&#160;</text>
<polygon fill="white" stroke="transparent" points="930.57,-508.96 930.57,-525.96 944.57,-525.96 944.57,-508.96 930.57,-508.96"/>
<text text-anchor="start" x="932.57" y="-514.36" font-family="sans-serif" font-size="12.00">D</text>
<polygon fill="white" stroke="transparent" points="913.57,-561.25 913.57,-580.25 929.57,-580.25 929.57,-561.25 913.57,-561.25"/>
<polyline fill="none" stroke="black" points="929.57,-561.25 929.57,-580.25 "/>
<text text-anchor="start" x="916.57" y="-567.65" font-family="sans-serif" font-size="12.00">U</text>
<polygon fill="white" stroke="transparent" points="929.57,-561.25 929.57,-580.25 962.57,-580.25 962.57,-561.25 929.57,-561.25"/>
<polygon fill="none" stroke="black" points="929.57,-561.25 929.57,-580.25 962.57,-580.25 962.57,-561.25 929.57,-561.25"/>
<text text-anchor="start" x="932.57" y="-567.65" font-family="sans-serif" font-size="12.00">OHS</text>
</g>
<!-- IGACThirdPartyContext -->
<g id="node12" class="node">
<title>IGACThirdPartyContext</title>
<polygon fill="none" stroke="black" stroke-width="2" points="701.86,-751.32 705.53,-754 708.75,-756.71 711.51,-759.43 713.79,-762.16 715.59,-764.87 716.9,-767.57 717.7,-770.23 717.99,-772.86 717.77,-775.44 717.03,-777.96 715.77,-780.42 714,-782.8 711.72,-785.1 708.92,-787.32 705.63,-789.44 701.85,-791.47 697.59,-793.39 692.87,-795.2 687.7,-796.9 682.09,-798.48 676.08,-799.95 669.67,-801.31 662.89,-802.54 655.77,-803.65 648.33,-804.65 640.59,-805.52 632.58,-806.28 624.34,-806.92 615.88,-807.45 607.24,-807.87 598.45,-808.17 589.54,-808.37 580.54,-808.46 571.48,-808.46 562.38,-808.35 553.29,-808.15 544.23,-807.86 535.22,-807.48 526.3,-807.01 517.5,-806.47 508.84,-805.84 500.34,-805.14 492.04,-804.36 483.95,-803.51 476.09,-802.6 468.5,-801.61 461.18,-800.57 454.15,-799.46 447.44,-798.28 441.06,-797.05 435.01,-795.76 429.32,-794.41 424,-793.01 419.05,-791.55 414.48,-790.03 410.3,-788.46 406.51,-786.84 403.12,-785.17 400.14,-783.44 397.56,-781.66 395.38,-779.84 393.61,-777.97 392.24,-776.05 391.27,-774.09 390.7,-772.09 390.53,-770.04 390.75,-767.97 391.35,-765.86 392.33,-763.72 393.69,-761.55 395.42,-759.37 397.51,-757.17 399.95,-754.96 402.74,-752.74 405.88,-750.53 409.34,-748.32 413.13,-746.13 417.23,-743.96 421.64,-741.82 426.35,-739.72 431.35,-737.66 436.63,-735.65 442.17,-733.71 447.98,-731.83 454.03,-730.03 460.32,-728.32 466.84,-726.7 473.57,-725.18 480.5,-723.77 487.63,-722.48 494.93,-721.32 502.39,-720.28 510,-719.39 517.74,-718.63 525.6,-718.02 533.57,-717.57 541.61,-717.27 549.72,-717.13 557.88,-717.16 566.06,-717.35 574.26,-717.7 582.44,-718.22 590.58,-718.91 598.67,-719.76 606.69,-720.76 614.6,-721.93 622.39,-723.25 630.03,-724.72 637.5,-726.33 644.78,-728.08 651.84,-729.96 658.67,-731.96 665.22,-734.08 671.49,-736.3 677.45,-738.62 683.08,-741.03 688.36,-743.51 693.26,-746.06 697.76,-748.67 701.86,-751.32"/>
<text text-anchor="middle" x="548.57" y="-762.03" font-family="sans-serif" font-size="16.00">IGACThirdPartyContext</text>
</g>
<!-- IGACThirdPartyContext&#45;&gt;CatastroContext -->
<g id="edge11" class="edge">
<title>IGACThirdPartyContext&#45;&gt;CatastroContext</title>
<path fill="none" stroke="black" stroke-width="2" d="M563.1,-717.04C568.36,-699.75 574.26,-680.34 579.39,-663.45"/>
<text text-anchor="middle" x="648.07" y="-689.38" font-family="sans-serif" font-size="12.00"> &#160;&#160;&#160;&#160;&#160;&#160;&#160;&#160;&#160;&#160;&#160;&#160;&#160;&#160;&#160;&#160;&#160;&#160;&#160;&#160;&#160;&#160;&#160;&#160;&#160;&#160;&#160;&#160;&#160;&#160;&#160;&#160;&#160;&#160;&#160;&#160;&#160;&#160;&#160;</text>
<polygon fill="white" stroke="transparent" points="556.39,-653.45 556.39,-672.45 572.39,-672.45 572.39,-653.45 556.39,-653.45"/>
<polyline fill="none" stroke="black" points="572.39,-653.45 572.39,-672.45 "/>
<text text-anchor="start" x="559.39" y="-659.85" font-family="sans-serif" font-size="12.00">D</text>
<polygon fill="white" stroke="transparent" points="572.39,-653.45 572.39,-672.45 602.39,-672.45 602.39,-653.45 572.39,-653.45"/>
<polygon fill="none" stroke="black" points="572.39,-653.45 572.39,-672.45 602.39,-672.45 602.39,-653.45 572.39,-653.45"/>
<text text-anchor="start" x="575.39" y="-659.85" font-family="sans-serif" font-size="12.00">ACL</text>
<polygon fill="white" stroke="transparent" points="539.1,-707.04 539.1,-726.04 555.1,-726.04 555.1,-707.04 539.1,-707.04"/>
<polyline fill="none" stroke="black" points="555.1,-707.04 555.1,-726.04 "/>
<text text-anchor="start" x="542.1" y="-713.44" font-family="sans-serif" font-size="12.00">U</text>
<polygon fill="white" stroke="transparent" points="555.1,-707.04 555.1,-726.04 588.1,-726.04 588.1,-707.04 555.1,-707.04"/>
<polygon fill="none" stroke="black" points="555.1,-707.04 555.1,-726.04 588.1,-726.04 588.1,-707.04 555.1,-707.04"/>
<text text-anchor="start" x="558.1" y="-713.44" font-family="sans-serif" font-size="12.00">OHS</text>
</g>
<!-- OpenMapsThirdPartyContext -->
<g id="node13" class="node">
<title>OpenMapsThirdPartyContext</title>
<polygon fill="none" stroke="black" stroke-width="2" points="1219.9,-748.92 1224.65,-746.25 1229.87,-743.65 1235.53,-741.12 1241.63,-738.68 1248.14,-736.33 1255.03,-734.08 1262.29,-731.95 1269.89,-729.93 1277.8,-728.05 1286.01,-726.31 1294.48,-724.7 1303.2,-723.25 1312.13,-721.94 1321.26,-720.8 1330.55,-719.81 1339.99,-718.98 1349.54,-718.32 1359.19,-717.83 1368.91,-717.5 1378.67,-717.33 1388.45,-717.32 1398.23,-717.47 1407.99,-717.78 1417.7,-718.24 1427.34,-718.84 1436.89,-719.59 1446.32,-720.47 1455.63,-721.49 1464.78,-722.62 1473.75,-723.88 1482.53,-725.24 1491.11,-726.71 1499.45,-728.27 1507.54,-729.91 1515.37,-731.63 1522.91,-733.43 1530.15,-735.29 1537.08,-737.2 1543.67,-739.16 1549.92,-741.16 1555.8,-743.2 1561.31,-745.26 1566.42,-747.34 1571.13,-749.43 1575.43,-751.54 1579.29,-753.65 1582.71,-755.75 1585.68,-757.85 1588.18,-759.94 1590.21,-762.01 1591.76,-764.07 1592.83,-766.1 1593.39,-768.11 1593.46,-770.1 1593.02,-772.06 1592.07,-773.98 1590.61,-775.88 1588.63,-777.74 1586.14,-779.57 1583.14,-781.36 1579.63,-783.11 1575.62,-784.83 1571.11,-786.5 1566.11,-788.14 1560.63,-789.74 1554.68,-791.29 1548.28,-792.8 1541.42,-794.27 1534.15,-795.68 1526.46,-797.05 1518.37,-798.37 1509.92,-799.63 1501.12,-800.83 1491.99,-801.98 1482.57,-803.06 1472.87,-804.08 1462.92,-805.03 1452.76,-805.91 1442.4,-806.7 1431.9,-807.42 1421.26,-808.05 1410.54,-808.59 1399.76,-809.04 1388.95,-809.39 1378.15,-809.63 1367.39,-809.77 1356.72,-809.8 1346.15,-809.71 1335.73,-809.51 1325.49,-809.18 1315.47,-808.73 1305.69,-808.15 1296.19,-807.44 1287,-806.6 1278.15,-805.63 1269.66,-804.53 1261.57,-803.3 1253.9,-801.93 1246.67,-800.44 1239.9,-798.81 1233.63,-797.07 1227.86,-795.2 1222.61,-793.22 1217.9,-791.12 1213.74,-788.92 1210.14,-786.62 1207.11,-784.22 1204.66,-781.75 1202.79,-779.19 1201.51,-776.57 1200.8,-773.89 1200.69,-771.16 1201.15,-768.4 1202.18,-765.61 1203.78,-762.8 1205.94,-759.99 1208.64,-757.18 1211.88,-754.39 1215.64,-751.63 1219.9,-748.92"/>
<text text-anchor="middle" x="1400.57" y="-762.03" font-family="sans-serif" font-size="16.00">OpenMapsThirdPartyContext</text>
</g>
<!-- OpenMapsThirdPartyContext&#45;&gt;LocalizacionContext -->
<g id="edge12" class="edge">
<title>OpenMapsThirdPartyContext&#45;&gt;LocalizacionContext</title>
<path fill="none" stroke="black" stroke-width="2" d="M1280.74,-727.37C1206.25,-704.09 1111.48,-674.46 1040.41,-652.25"/>
<text text-anchor="middle" x="1258.07" y="-689.38" font-family="sans-serif" font-size="12.00"> &#160;&#160;&#160;&#160;&#160;&#160;&#160;&#160;&#160;&#160;&#160;&#160;&#160;&#160;&#160;&#160;&#160;&#160;&#160;&#160;&#160;&#160;&#160;&#160;&#160;&#160;&#160;&#160;&#160;&#160;&#160;&#160;&#160;&#160;&#160;&#160;&#160;&#160;&#160;</text>
<polygon fill="white" stroke="transparent" points="1017.41,-642.25 1017.41,-661.25 1033.41,-661.25 1033.41,-642.25 1017.41,-642.25"/>
<polyline fill="none" stroke="black" points="1033.41,-642.25 1033.41,-661.25 "/>
<text text-anchor="start" x="1020.41" y="-648.65" font-family="sans-serif" font-size="12.00">D</text>
<polygon fill="white" stroke="transparent" points="1033.41,-642.25 1033.41,-661.25 1063.41,-661.25 1063.41,-642.25 1033.41,-642.25"/>
<polygon fill="none" stroke="black" points="1033.41,-642.25 1033.41,-661.25 1063.41,-661.25 1063.41,-642.25 1033.41,-642.25"/>
<text text-anchor="start" x="1036.41" y="-648.65" font-family="sans-serif" font-size="12.00">ACL</text>
<polygon fill="white" stroke="transparent" points="1256.74,-717.37 1256.74,-736.37 1272.74,-736.37 1272.74,-717.37 1256.74,-717.37"/>
<polyline fill="none" stroke="black" points="1272.74,-717.37 1272.74,-736.37 "/>
<text text-anchor="start" x="1259.74" y="-723.77" font-family="sans-serif" font-size="12.00">U</text>
<polygon fill="white" stroke="transparent" points="1272.74,-717.37 1272.74,-736.37 1305.74,-736.37 1305.74,-717.37 1272.74,-717.37"/>
<polygon fill="none" stroke="black" points="1272.74,-717.37 1272.74,-736.37 1305.74,-736.37 1305.74,-717.37 1272.74,-717.37"/>
<text text-anchor="start" x="1275.74" y="-723.77" font-family="sans-serif" font-size="12.00">OHS</text>
</g>
<!-- RuesThirdPartyContext -->
<g id="node14" class="node">
<title>RuesThirdPartyContext</title>
<polygon fill="none" stroke="black" stroke-width="2" points="90.63,-802.56 81.72,-801 73.11,-799.35 64.83,-797.61 56.93,-795.79 49.44,-793.9 42.39,-791.95 35.8,-789.93 29.7,-787.87 24.13,-785.75 19.09,-783.6 14.62,-781.42 10.71,-779.22 7.4,-776.99 4.69,-774.75 2.58,-772.51 1.08,-770.26 0.2,-768.02 -0.07,-765.79 0.26,-763.58 1.19,-761.39 2.72,-759.22 4.81,-757.08 7.47,-754.98 10.67,-752.92 14.39,-750.91 18.61,-748.94 23.31,-747.02 28.46,-745.16 34.03,-743.35 40,-741.61 46.33,-739.92 53,-738.31 59.97,-736.76 67.22,-735.29 74.71,-733.89 82.41,-732.56 90.29,-731.31 98.33,-730.15 106.48,-729.06 114.73,-728.07 123.04,-727.15 131.38,-726.33 139.74,-725.6 148.09,-724.96 156.4,-724.41 164.65,-723.96 172.83,-723.61 180.91,-723.35 188.88,-723.2 196.73,-723.15 204.43,-723.2 211.97,-723.35 219.36,-723.61 226.57,-723.98 233.59,-724.45 240.43,-725.03 247.07,-725.72 253.51,-726.51 259.74,-727.41 265.76,-728.42 271.57,-729.53 277.16,-730.75 282.53,-732.06 287.67,-733.48 292.59,-735 297.29,-736.62 301.75,-738.32 305.97,-740.12 309.96,-742 313.7,-743.96 317.2,-746 320.44,-748.12 323.42,-750.29 326.13,-752.53 328.57,-754.83 330.73,-757.17 332.6,-759.55 334.16,-761.97 335.42,-764.41 336.35,-766.87 336.96,-769.34 337.22,-771.82 337.14,-774.29 336.69,-776.75 335.87,-779.18 334.67,-781.59 333.08,-783.96 331.1,-786.28 328.7,-788.54 325.9,-790.75 322.67,-792.88 319.03,-794.93 314.96,-796.9 310.46,-798.77 305.54,-800.54 300.2,-802.21 294.44,-803.76 288.28,-805.2 281.71,-806.51 274.76,-807.7 267.43,-808.75 259.75,-809.67 251.72,-810.45 243.37,-811.09 234.73,-811.59 225.82,-811.94 216.66,-812.15 207.28,-812.22 197.72,-812.15 188.01,-811.93 178.19,-811.57 168.28,-811.07 158.32,-810.44 148.36,-809.68 138.43,-808.79 128.57,-807.77 118.82,-806.64 109.23,-805.38 99.82,-804.03 90.63,-802.56"/>
<text text-anchor="middle" x="180.57" y="-762.03" font-family="sans-serif" font-size="16.00">RuesThirdPartyContext</text>
</g>
<!-- RuesThirdPartyContext&#45;&gt;CompaniasInquilinosContext -->
<g id="edge13" class="edge">
<title>RuesThirdPartyContext&#45;&gt;CompaniasInquilinosContext</title>
<path fill="none" stroke="black" stroke-width="2" d="M196.48,-722.97C203.05,-705.69 210.69,-685.57 217.47,-667.73"/>
<text text-anchor="middle" x="286.07" y="-689.38" font-family="sans-serif" font-size="12.00"> &#160;&#160;&#160;&#160;&#160;&#160;&#160;&#160;&#160;&#160;&#160;&#160;&#160;&#160;&#160;&#160;&#160;&#160;&#160;&#160;&#160;&#160;&#160;&#160;&#160;&#160;&#160;&#160;&#160;&#160;&#160;&#160;&#160;&#160;&#160;&#160;&#160;&#160;&#160;</text>
<polygon fill="white" stroke="transparent" points="194.47,-657.73 194.47,-676.73 210.47,-676.73 210.47,-657.73 194.47,-657.73"/>
<polyline fill="none" stroke="black" points="210.47,-657.73 210.47,-676.73 "/>
<text text-anchor="start" x="197.47" y="-664.13" font-family="sans-serif" font-size="12.00">D</text>
<polygon fill="white" stroke="transparent" points="210.47,-657.73 210.47,-676.73 240.47,-676.73 240.47,-657.73 210.47,-657.73"/>
<polygon fill="none" stroke="black" points="210.47,-657.73 210.47,-676.73 240.47,-676.73 240.47,-657.73 210.47,-657.73"/>
<text text-anchor="start" x="213.47" y="-664.13" font-family="sans-serif" font-size="12.00">ACL</text>
<polygon fill="white" stroke="transparent" points="172.48,-712.97 172.48,-731.97 188.48,-731.97 188.48,-712.97 172.48,-712.97"/>
<polyline fill="none" stroke="black" points="188.48,-712.97 188.48,-731.97 "/>
<text text-anchor="start" x="175.48" y="-719.37" font-family="sans-serif" font-size="12.00">U</text>
<polygon fill="white" stroke="transparent" points="188.48,-712.97 188.48,-731.97 221.48,-731.97 221.48,-712.97 188.48,-712.97"/>
<polygon fill="none" stroke="black" points="188.48,-712.97 188.48,-731.97 221.48,-731.97 221.48,-712.97 188.48,-712.97"/>
<text text-anchor="start" x="191.48" y="-719.37" font-family="sans-serif" font-size="12.00">OHS</text>
</g>
<!-- ValidacionExpertaInformacionContext -->
<g id="node15" class="node">
<title>ValidacionExpertaInformacionContext</title>
<polygon fill="none" stroke="black" stroke-width="2" points="1577.09,-644.63 1567.89,-646.98 1558.19,-649.25 1548.04,-651.42 1537.46,-653.49 1526.5,-655.44 1515.2,-657.28 1503.59,-658.98 1491.72,-660.56 1479.62,-661.99 1467.34,-663.27 1454.91,-664.4 1442.36,-665.38 1429.74,-666.19 1417.09,-666.85 1404.43,-667.34 1391.8,-667.66 1379.23,-667.82 1366.75,-667.82 1354.4,-667.65 1342.2,-667.33 1330.17,-666.84 1318.35,-666.2 1306.76,-665.41 1295.41,-664.48 1284.34,-663.4 1273.55,-662.2 1263.08,-660.86 1252.94,-659.41 1243.14,-657.85 1233.7,-656.18 1224.63,-654.41 1215.96,-652.56 1207.68,-650.62 1199.82,-648.62 1192.39,-646.55 1185.39,-644.42 1178.84,-642.25 1172.75,-640.05 1167.13,-637.81 1161.99,-635.55 1157.33,-633.28 1153.17,-631 1149.52,-628.72 1146.38,-626.45 1143.77,-624.19 1141.69,-621.94 1140.15,-619.73 1139.16,-617.54 1138.72,-615.38 1138.84,-613.27 1139.53,-611.19 1140.8,-609.16 1142.64,-607.18 1145.07,-605.25 1148.09,-603.37 1151.69,-601.54 1155.88,-599.78 1160.65,-598.07 1166.02,-596.42 1171.96,-594.83 1178.49,-593.3 1185.58,-591.84 1193.24,-590.44 1201.45,-589.1 1210.19,-587.82 1219.46,-586.61 1229.24,-585.47 1239.5,-584.39 1250.23,-583.38 1261.41,-582.44 1272.99,-581.57 1284.97,-580.77 1297.3,-580.04 1309.96,-579.38 1322.9,-578.8 1336.1,-578.3 1349.52,-577.88 1363.1,-577.54 1376.83,-577.29 1390.64,-577.12 1404.49,-577.05 1418.35,-577.06 1432.15,-577.17 1445.87,-577.38 1459.44,-577.68 1472.82,-578.09 1485.97,-578.6 1498.84,-579.21 1511.37,-579.94 1523.53,-580.77 1535.27,-581.72 1546.55,-582.77 1557.32,-583.94 1567.55,-585.21 1577.2,-586.6 1586.23,-588.1 1594.61,-589.71 1602.31,-591.42 1609.3,-593.23 1615.55,-595.15 1621.05,-597.16 1625.78,-599.27 1629.72,-601.46 1632.86,-603.73 1635.18,-606.08 1636.7,-608.5 1637.39,-610.98 1637.27,-613.51 1636.34,-616.08 1634.61,-618.69 1632.09,-621.33 1628.79,-623.99 1624.73,-626.65 1619.93,-629.31 1614.42,-631.96 1608.22,-634.58 1601.36,-637.17 1593.86,-639.72 1585.76,-642.21 1577.09,-644.63"/>
<text text-anchor="middle" x="1376.57" y="-615.3" font-family="sans-serif" font-size="16.00">ValidacionExpertaInformacionContext</text>
</g>
<!-- ValidacionExpertaInformacionContext&#45;&gt;InformacionContext -->
<g id="edge14" class="edge">
<title>ValidacionExpertaInformacionContext&#45;&gt;InformacionContext</title>
<path fill="none" stroke="black" stroke-width="2" d="M1266.64,-581.97C1198.83,-559.67 1112.26,-531.21 1044.93,-509.08"/>
<text text-anchor="middle" x="1204.07" y="-542.62" font-family="sans-serif" font-size="12.00">Partnership</text>
</g>
</g>
</svg>
